<?xml version="1.0" encoding="UTF-8"?>
<svg id="Layer_1" data-name="Layer 1" xmlns="http://www.w3.org/2000/svg" viewBox="0 0 512 512">
  <defs>
    <style>
      .cls-1 {
        fill: none;
        stroke: #9f8151;
        stroke-linecap: round;
        stroke-linejoin: round;
        stroke-width: 11px;
      }
    </style>
  </defs>
  <circle class="cls-1" cx="256" cy="221.54" r="172.24"/>
  <path class="cls-1" d="M471.83,222.86c0-119.2-96.63-215.83-215.83-215.83S40.17,103.66,40.17,222.86c0,56.46,21.68,107.86,57.17,146.32,85.33,99.07,158.86,135.79,158.86,135.79,0,0,72.8-36.58,157.92-135.22,35.81-38.53,57.71-90.15,57.71-146.89Z"/>
  <path class="cls-1" d="M256,327.89l41.61,9.25v-23.45s-26.09-18.83-26.09-18.83v-52.84s91.16,23.78,91.16,23.78l.99-31.38-92.15-53.83s0-49.87,0-60.44c0-14.86-15.52-14.2-15.52-14.2,0,0-15.52-.66-15.52,14.2v60.44l-92.15,53.83.99,31.38,91.16-23.78v52.84l-26.09,18.83v23.45s41.61-9.25,41.61-9.25Z"/>
</svg>