<?xml version="1.0" encoding="UTF-8"?>
<svg id="Layer_1" data-name="Layer 1" xmlns="http://www.w3.org/2000/svg" viewBox="0 0 512 512">
  <defs>
    <style>
      .cls-1 {
        stroke-linejoin: round;
      }

      .cls-1, .cls-2 {
        fill: none;
        stroke: #9f8151;
        stroke-linecap: round;
        stroke-width: 11px;
      }

      .cls-2 {
        stroke-miterlimit: 10;
      }
    </style>
  </defs>
  <path class="cls-1" d="M379.51,10h-247.02c0,38.23-31.09,69.23-69.44,69.23h-4.3v212.96c0,73.42,43.07,140.05,110.13,170.4l87.12,39.41,87.11-39.42c67.07-30.34,110.14-96.98,110.14-170.4V79.23h-4.3c-38.35,0-69.44-30.99-69.44-69.23Z"/>
  <g>
    <path class="cls-2" d="M166.66,341.65v-69.28h0c0-45.39,34.7-83.24,79.92-87.17l3.95-.34h0c2.09-14.65,14.64-25.53,29.43-25.53h3.39v43.76l61.99,69.28-25.53,29.17-29.17-18.23h-6.52c-17.15,0-33.91-5.08-48.17-14.59h0"/>
    <path class="cls-2" d="M260.06,281.98v1.1c0,19.49,5.09,38.65,14.76,55.57,9.45,16.53,14.41,35.24,14.41,54.28v11.06h-78.03"/>
  </g>
  <g>
    <g>
      <line class="cls-2" x1="245.24" y1="80.2" x2="266.76" y2="101.73"/>
      <line class="cls-2" x1="266.76" y1="80.2" x2="245.24" y2="101.73"/>
    </g>
    <g>
      <g>
        <line class="cls-2" x1="337.38" y1="123.3" x2="358.91" y2="144.83"/>
        <line class="cls-2" x1="358.91" y1="123.3" x2="337.38" y2="144.83"/>
      </g>
      <g>
        <line class="cls-2" x1="153.09" y1="123.3" x2="174.62" y2="144.83"/>
        <line class="cls-2" x1="174.62" y1="123.3" x2="153.09" y2="144.83"/>
      </g>
    </g>
  </g>
</svg>