<?xml version="1.0" encoding="UTF-8"?>
<svg id="Layer_1" data-name="Layer 1" xmlns="http://www.w3.org/2000/svg" viewBox="0 0 512 512">
  <defs>
    <style>
      .cls-1 {
        fill: none;
        stroke: #9f8151;
        stroke-linecap: round;
        stroke-linejoin: round;
        stroke-width: 11px;
      }
    </style>
  </defs>
  <g>
    <polyline class="cls-1" points="178 497.32 178 401.89 218.67 401.89"/>
    <polyline class="cls-1" points="253.93 234.62 210.81 234.62 210.81 401.2"/>
    <polyline class="cls-1" points="252.42 133.58 236.48 133.58 236.48 234.55"/>
    <polyline class="cls-1" points="279.59 302.35 323.75 302.35 323.75 418.7"/>
    <polyline class="cls-1" points="355.54 499.37 355.54 419.33 313.45 419.33"/>
    <polyline class="cls-1" points="243.67 133.03 245.72 50.94 284.72 50.94 284.72 133.03 300.11 133.03 300.11 302.12"/>
    <line class="cls-1" x1="264.2" y1="10.92" x2="264.2" y2="47.82"/>
  </g>
  <path class="cls-1" d="M410.62,324.77c11.67,0,20.15,9.54,20.15,20.15,0-11.67,9.54-20.15,20.15-20.15"/>
  <path class="cls-1" d="M126.03,164.69c11.67,0,20.15,9.54,20.15,20.15,0-11.67,9.54-20.15,20.15-20.15"/>
  <path class="cls-1" d="M81.19,308.16h75.25s15.05-.68,18.47-14.37c3.42-13.68-4.79-24.63-10.95-28.05,0,0-4.79-25.31-27.36-14.37,0,0-15.05-23.94-36.94-16.42-21.89,7.53-23.26,31.47-23.26,31.47,0,0-17.75,9.23-15.05,23.26,3.42,17.79,19.84,18.47,19.84,18.47Z"/>
  <path class="cls-1" d="M356.89,449.77h50.62s15.05-.68,18.47-14.37c3.42-13.68-4.79-24.63-10.95-28.05,0,0-4.79-25.31-27.36-14.37,0,0-15.05-23.94-36.94-16.42-21.89,7.53-21.21,34.89-21.21,34.89"/>
  <path class="cls-1" d="M421.87,178.45h-75.25s-15.05-.68-18.47-14.37c-3.42-13.68,4.79-24.63,10.95-28.05,0,0,4.79-25.31,27.36-14.37,0,0,15.05-23.94,36.94-16.42,21.89,7.53,23.26,31.47,23.26,31.47,0,0,17.75,9.23,15.05,23.26-3.42,17.79-19.84,18.47-19.84,18.47Z"/>
  <line class="cls-1" x1="134.39" y1="501.08" x2="399.14" y2="501.08"/>
</svg>