<?xml version="1.0" encoding="UTF-8"?>
<svg id="Layer_1" data-name="Layer 1" xmlns="http://www.w3.org/2000/svg" viewBox="0 0 512 512">
  <defs>
    <style>
      .cls-1 {
        fill: none;
        stroke: #9f8151;
        stroke-linecap: round;
        stroke-miterlimit: 10;
        stroke-width: 11px;
      }
    </style>
  </defs>
  <g>
    <g>
      <path class="cls-1" d="M303.43,320.55c-.71,29.77,5.86,54.07,11.92,81.09,10.13,45.17.91,67.01,5.81,87.58M353.37,489.23l-3.06-20.45,1.77-122.55c11.1-8.18,17.56-16.62,21.51-25.44s5.42-18.02,6.51-27.74c2.79-24.68,3.24-52.68,36.37-86.19M159.96,217.36c-9.6-2.07-17.85-4-23.92-5.03-35.19-5.96-59.72,14.39-73.21,38.55M56.32,264.95c-4.41,11.8-6.31,23.49-5.65,32.66,2.64,36.7,16.5,62.85,19.33,99.95,2.43,31.75-5.94,41.7-5.94,91.66M94.05,489.23l-1.71-21.87,10.16-58.08c4.87-27.86,49.25-52.27,57.12-108.84M305.31,355.82c-55.36,9.56-89.65-16.69-155.87-21.3"/>
      <path class="cls-1" d="M89.53,221.42c-28.85-30.32-76.33-9.5-75.89,27.9.3,25.34,27.29,63.31,0,106.05,18.59,5.07,32.44,2.85,46.94-6.74M126.7,369.81c1.88,8.66,4.04,17.96,4.79,27.75,2.43,31.75-5.94,41.7-5.94,91.66M155.54,489.23l-1.71-21.87,10.16-58.08c3.39-19.38,26.53-37.21,42.56-65.23M273.8,358.01c2.35,14.99,5.93,28.38,9.35,43.64,10.13,45.17.91,67.01,5.81,87.58M402.46,195.06c12.18,17.12,25.27,14.14,42.96,12.39l18.64,14.9,9.54,8.24,24.77-29.72-10.62-12.06-24.92-28.36-19.61-22.97-7.5-38.56h0c-13.41,7.19-23.02,19.87-26.33,34.72l-2.08,9.35h0c-29.46,7.35-76.58,34.12-104.48,60.22M445.8,489.23H22.8"/>
    </g>
    <path class="cls-1" d="M292.54,248.58v20.37c0,13.28-10.77,24.05-24.05,24.05h-65.16c-13.28,0-24.05-10.77-24.05-24.05v-7.6"/>
  </g>
  <path class="cls-1" d="M237.06,193.15l-13.33,40.25c-2.13,6.43-6.86,11.66-13.05,14.41l-58.38,25.99c-5.45,2.43-11.53,1.57-16.01-1.73-2.77-2.03-4.93-4.99-5.97-8.67-2.2-7.8,2.37-15.97,9.77-19.26l49.16-21.89,20.85-110.63"/>
  <path class="cls-1" d="M259.13,213.07c-.71-.52-1.38-1.1-2.01-1.75l-34.04-34.91c-2.33-2.39-3.86-5.45-4.37-8.76l-8.62-56.02c-1.35-8.75,4.65-16.94,13.41-18.28,8.75-1.35,16.94,4.66,18.28,13.41l7.84,50.95,30.46,31.23c6.18,6.34,6.06,16.49-.28,22.67-5.69,5.55-14.45,6.01-20.66,1.46Z"/>
  <path class="cls-1" d="M274.58,57.59c.29,6.97-2.45,14.01-8.08,19-9.94,8.81-25.14,7.89-33.95-2.05-8.81-9.94-7.89-25.14,2.05-33.95"/>
  <path class="cls-1" d="M237.16,38.21l56.39,29.22"/>
  <path class="cls-1" d="M235.34,39.73l12.97-12.51c4.19-4.62,10.99-5.78,16.48-2.83l9.55,5.13c5.49,2.95,9.28,9.26,7.75,15.31l-2.67,15.03"/>
  <path class="cls-1" d="M424.92,353.93l23.8-25.23c2.83-3,6.45-4.54,10.16-5.08,6.19-.9,12.72,1.34,16.7,6.92.13.19.27.38.39.57,1.3,1.98,2.23,4.27,2.55,6.69,1.09,8.26-3.78,17.81-15.28,19.77l-13.23,2.26c-11.05,1.88-22.34-1.61-30.38-9.42l-138.54-137.86"/>
  <path class="cls-1" d="M427.02,164.2v8.02"/>
</svg>