<?xml version="1.0" encoding="UTF-8"?>
<svg id="Layer_1" data-name="Layer 1" xmlns="http://www.w3.org/2000/svg" viewBox="0 0 512 512">
  <defs>
    <style>
      .cls-1 {
        fill: #9f8151;
      }
    </style>
  </defs>
  <path class="cls-1" d="M502.93,250.44l-.06-.34c-2.31-14.02-11.35-22.38-24.21-22.38h-.03c-4.29,0-8.47.92-12.31,2.69-.12-2.14-.4-4.22-.71-6.22-.31-1.97-.67-4.01-1.22-6.05,4.23.5,8.52.08,12.6-1.25,7.64-2.48,12.9-7.62,15.2-14.86,1.94-6.11,1.65-13.4-.85-21.08-5.59-17.16-18.46-25.23-32.77-20.56-4.08,1.34-7.78,3.51-10.89,6.36-.79-2.06-1.73-3.98-2.6-5.7-.9-1.77-1.88-3.6-3.03-5.38,4.19-.84,8.15-2.56,11.62-5.09,6.5-4.73,9.9-11.24,9.85-18.82-.04-6.42-2.57-13.26-7.33-19.77-10.63-14.58-25.36-18.29-37.52-9.42-3.47,2.53-6.31,5.74-8.39,9.41-1.4-1.73-2.88-3.26-4.24-4.61-1.34-1.35-2.85-2.81-4.55-4.19,3.73-2.09,6.95-4.95,9.47-8.43,4.72-6.49,5.95-13.73,3.56-20.95-2.02-6.08-6.55-11.8-13.09-16.55-14.62-10.58-29.76-9.55-38.58,2.62-2.53,3.47-4.25,7.41-5.08,11.56-1.86-1.2-3.74-2.21-5.46-3.08-1.69-.87-3.58-1.79-5.61-2.57,2.91-3.15,5.09-6.87,6.4-10.94,2.48-7.66,1.41-14.93-3.09-21.03-3.79-5.16-9.86-9.2-17.55-11.69-8.39-2.72-16.15-2.85-22.45-.38-6.48,2.54-11.13,7.66-13.44,14.81-1.32,4.08-1.74,8.34-1.25,12.54-2.13-.57-4.24-.95-6.16-1.26-1.88-.29-3.95-.58-6.12-.7,1.79-3.89,2.72-8.1,2.72-12.39-.01-8.03-3.28-14.61-9.45-19.03-5.19-3.73-12.19-5.7-20.26-5.7h-.05c-2.38,0-4.7.17-6.96.52l-.34.06c-14.03,2.29-22.4,11.36-22.37,24.24,0,4.29.92,8.48,2.67,12.31-2.21.12-4.33.41-6.23.72-1.96.31-3.99.67-6.04,1.21.5-4.24.08-8.53-1.25-12.6-2.48-7.64-7.62-12.9-14.87-15.21-6.11-1.93-13.39-1.63-21.06.86-17.15,5.6-25.23,18.46-20.57,32.77,1.33,4.07,3.5,7.78,6.36,10.89-2.06.79-3.99,1.73-5.7,2.6-1.77.9-3.59,1.87-5.37,3.02-.83-4.17-2.55-8.12-5.08-11.61-4.7-6.45-11.17-9.86-18.71-9.86h-.13c-6.41.05-13.25,2.59-19.77,7.34-7.13,5.19-11.8,11.39-13.51,17.94-1.76,6.73-.35,13.5,4.07,19.57,2.53,3.48,5.74,6.33,9.42,8.4-1.65,1.35-3.18,2.81-4.61,4.24-1.35,1.34-2.81,2.86-4.18,4.54-2.09-3.72-4.95-6.94-8.43-9.46-6.49-4.72-13.74-5.95-20.94-3.56-6.08,2.02-11.8,6.54-16.55,13.09-5.8,8-8.23,16.13-7.05,23.5.96,5.98,4.31,11.19,9.68,15.07,3.48,2.52,7.4,4.24,11.54,5.08-1.16,1.8-2.16,3.65-3.1,5.46-.9,1.77-1.8,3.64-2.56,5.61-3.15-2.9-6.87-5.08-10.94-6.39-7.63-2.48-14.9-1.42-21.02,3.08-5.16,3.8-9.2,9.87-11.69,17.55-2.72,8.39-2.85,16.16-.39,22.46,2.54,6.48,7.66,11.13,14.81,13.44,4.09,1.32,8.35,1.74,12.54,1.25-.55,2.08-.92,4.15-1.24,6.13-.3,1.88-.59,3.96-.72,6.13-3.87-1.78-8.08-2.71-12.38-2.71-8.04.01-14.63,3.28-19.05,9.44-3.74,5.22-5.71,12.24-5.7,20.31.02,18.03,9.75,29.68,24.78,29.68h.02c4.28,0,8.47-.92,12.32-2.67.12,2.13.4,4.22.71,6.23.31,1.96.68,4,1.22,6.04-4.24-.5-8.53-.08-12.6,1.25-7.66,2.49-12.92,7.63-15.21,14.87-1.94,6.12-1.64,13.4.86,21.05,5.6,17.16,18.46,25.24,32.77,20.58,4.07-1.34,7.77-3.51,10.87-6.36.78,2.01,1.69,3.9,2.61,5.7.85,1.69,1.84,3.54,3.03,5.38-4.19.84-8.14,2.56-11.61,5.09-6.5,4.74-9.91,11.25-9.86,18.83.05,6.41,2.58,13.25,7.33,19.79,10.64,14.58,25.36,18.28,37.51,9.42,3.48-2.52,6.33-5.72,8.4-9.41,1.39,1.71,2.87,3.25,4.23,4.61,1.41,1.41,2.9,2.84,4.55,4.19-3.73,2.09-6.95,4.95-9.46,8.42-4.73,6.51-5.96,13.76-3.56,20.95,2,6.07,6.52,11.79,13.08,16.54,14.62,10.59,29.77,9.56,38.6-2.62,2.52-3.48,4.24-7.41,5.07-11.53,1.8,1.16,3.66,2.17,5.47,3.1,1.7.85,3.58,1.77,5.6,2.55-2.91,3.15-5.09,6.87-6.39,10.93-2.49,7.67-1.42,14.95,3.09,21.04,3.79,5.16,9.86,9.2,17.55,11.69,17.15,5.56,31.25-.11,35.91-14.43,1.31-4.08,1.73-8.34,1.24-12.54,2.08.55,4.15.93,6.15,1.25,1.97.31,4.02.59,6.12.71-1.79,3.88-2.72,8.1-2.71,12.38.01,8.04,3.28,14.63,9.43,19.04,5.19,3.73,12.19,5.7,20.31,5.7,8.82-.01,16.25-2.29,21.48-6.58,5.38-4.41,8.22-10.72,8.2-18.23,0-4.3-.93-8.49-2.68-12.32,2.21-.12,4.33-.41,6.23-.72,1.88-.3,3.94-.66,6.04-1.21-.5,4.23-.08,8.52,1.25,12.61,2.49,7.64,7.62,12.89,14.86,15.19,6.1,1.94,13.39,1.65,21.08-.85,8.39-2.74,14.75-7.19,18.39-12.89,3.75-5.86,4.5-12.73,2.16-19.88-1.33-4.07-3.49-7.77-6.35-10.88,2.01-.77,3.9-1.69,5.69-2.61,1.78-.9,3.61-1.88,5.39-3.03.84,4.2,2.57,8.15,5.09,11.6,4.68,6.46,11.14,9.88,18.7,9.88h.13c6.41-.05,13.25-2.59,19.77-7.34,7.98-5.81,12.82-12.79,13.97-20.17.94-5.98-.63-11.97-4.54-17.33-2.53-3.48-5.74-6.34-9.41-8.4,1.72-1.4,3.25-2.88,4.6-4.24,1.35-1.34,2.81-2.85,4.18-4.55,2.09,3.73,4.96,6.95,8.43,9.47,6.51,4.71,13.76,5.95,20.94,3.56,6.09-2.02,11.81-6.54,16.56-13.09,5.17-7.14,7.7-14.48,7.3-21.24-.41-6.95-3.84-12.95-9.93-17.35-3.49-2.52-7.41-4.24-11.53-5.07,1.2-1.86,2.19-3.73,3.08-5.46.9-1.78,1.8-3.65,2.56-5.61,3.13,2.89,6.85,5.08,10.94,6.41,7.65,2.48,14.92,1.4,21.03-3.1,5.14-3.8,9.19-9.86,11.69-17.55,2.72-8.39,2.85-16.15.39-22.45-2.54-6.48-7.66-11.13-14.82-13.44-4.08-1.32-8.35-1.75-12.54-1.26.55-2.07.93-4.14,1.24-6.14.31-1.97.59-4.02.71-6.13,3.87,1.78,8.06,2.71,12.32,2.71h.06c8.05-.01,14.63-3.28,19.04-9.45,3.73-5.2,5.7-12.22,5.69-20.3,0-2.48-.16-4.73-.5-6.97ZM489.74,271.98c-2.06,2.88-4.79,4.56-8.32,5.12-.9.13-1.81.2-2.75.2-6.31,0-12.29-3.03-16-8.1-.03-.05-.06-.1-.1-.15h0s-.61-.86-.61-.86c-3.43-4.68-8.02-8.37-13.34-10.78,5.35-2.43,9.97-6.16,13.4-10.88l.85-1.11c3.8-4.98,9.55-7.84,15.76-7.85h.01c13.44,0,14.93,13.88,14.94,19.85.01,5.99-1.32,11.02-3.86,14.56ZM461.65,345.14c-6.01-1.95-10.76-6.68-12.73-12.67-.02-.07-.04-.15-.07-.23l-.28-.92c-1.82-5.51-5.05-10.44-9.36-14.37.52-.06,1.04-.12,1.55-.2,0,0,.01,0,.02,0,5.3-.85,10.19-2.88,14.55-6.02.05-.04.1-.07.14-.11.08-.07.17-.14.28-.21l.13-.1c.2-.12.37-.23.57-.37,5.16-3.55,11.51-4.5,17.43-2.59,3.87,1.25,6.51,3.34,8.07,6.4,3.16,6.19.81,14.65.02,17.1-1.85,5.71-4.67,10.08-8.15,12.65-3.55,2.6-7.53,3.14-12.16,1.64ZM424.46,404.39h0c-5.13-3.71-8.19-9.72-8.17-16.07v-1.12c-.01-5.81-1.57-11.49-4.45-16.57,5.75,1.18,11.68.88,17.25-.91.06-.02.12-.04.17-.06.1-.04.2-.07.3-.11l.19-.05c.08-.02.13-.04.21-.07l.1-.03c.12-.03.26-.07.4-.12,5.98-1.77,12.29-.7,17.32,2.93,4.81,3.49,6.63,7.96,5.57,13.66-.94,5.01-3.9,9.5-5.14,11.2-3.53,4.87-7.56,8.16-11.7,9.52-.7.24-1.41.41-2.12.52-.68.11-1.3.16-1.88.16-2.7,0-5.41-.97-8.05-2.88ZM370.81,449.26s0,0,0,0c-3.7-5.05-4.77-11.64-2.88-17.65.04-.08.07-.17.1-.26l.32-.97c1.77-5.53,2.05-11.42.88-17.14,5.11,2.9,10.85,4.45,16.71,4.46.05,0,.11,0,.17,0,.12,0,.25,0,.37,0l.83.03c6.27.16,11.96,3.12,15.61,8.14,3.5,4.8,3.85,9.61,1.08,14.7-2.44,4.48-6.65,7.83-8.35,9.07-3.9,2.84-7.9,4.65-11.55,5.23-.84.13-1.68.2-2.53.21-4.4,0-7.91-1.9-10.75-5.82ZM324.07,484.68c-3.65.58-6.91.41-9.68-.47h0c-4.21-1.34-6.98-4.24-8.48-8.88-1.96-5.99-.94-12.6,2.75-17.71.05-.05.09-.11.13-.17l.61-.82c3.4-4.7,5.49-10.21,6.14-16.02,3.95,4.32,8.92,7.57,14.48,9.4.06.02.12.04.18.05.12.03.24.07.35.11l.8.29c5.9,2.07,10.39,6.65,12.33,12.57,1.84,5.65.69,10.33-3.52,14.31-3.7,3.5-8.74,5.38-10.73,6.03-1.85.6-3.65,1.04-5.35,1.31ZM300.85,451.61h0s-.01.02-.02.03c-2.72,3.41-7.04,4.68-13.14,5.62-2.87.46-4.95.66-6.73.66-3.23,0-5.65-.66-7.83-2.13l-.61-.43c-5.15-3.79-8.55-9.5-9.58-16.06-2.01-12.88,5.92-24.88,17.68-26.75,11.74-1.86,22.94,7.12,24.98,20,1.05,6.57-.39,13-4.06,18.14-.04.05-.09.1-.13.16l-.57.76ZM261.29,494.58c-2.38.37-4.33.42-5.32.42-6,0-11.03-1.33-14.52-3.85,0,0,0,0,0,0-3.58-2.56-5.32-6.17-5.33-11.05,0-6.35,3.06-12.35,8.19-16.06.02-.01.03-.02.05-.04.02-.01.04-.03.06-.04l.81-.58c4.69-3.42,8.38-8.02,10.79-13.34,2.43,5.34,6.16,9.97,10.93,13.45.13.09.26.18.4.29l.18.13c.11.09.23.17.36.29.04.03.08.07.12.1,4.98,3.79,7.84,9.54,7.85,15.76.02,8.11-4.88,13-14.55,14.53ZM195.31,484.72c-1,.16-2.08.25-3.21.25-4.03,0-7.69-1-9.52-1.59,0,0,0,0,0,0-5.69-1.84-10.07-4.66-12.65-8.15-2.61-3.56-3.15-7.54-1.64-12.17,1.94-6.01,6.68-10.76,12.69-12.72h.02c.05-.02.1-.03.15-.05l.95-.31c5.52-1.8,10.45-5.04,14.39-9.35.66,5.83,2.79,11.39,6.25,16.19l.11.16c.07.09.14.19.17.22l.19.28c.09.14.18.28.28.42,3.56,5.16,4.5,11.5,2.59,17.4-1.77,5.49-5.29,8.58-10.76,9.44ZM116.35,449.62c-4.87-3.51-8.16-7.55-9.52-11.66-1.39-4.18-.67-8.14,2.19-12.09,3.71-5.12,9.73-8.18,16.08-8.18h1.1c1.7.01,3.42-.12,5.13-.39,0,0,0,0,0,0,4.02-.64,7.89-2.01,11.45-4.04-1.17,5.74-.87,11.67.93,17.28l.06.17c.04.11.07.22.11.32l.08.27c.05.18.09.34.16.55,1.79,6,.73,12.33-2.92,17.36-3.49,4.81-7.96,6.63-13.65,5.57-5.01-.94-9.49-3.9-11.19-5.14ZM95.71,387.49c0,.08,0,.16,0,.24,0,.09,0,.18,0,.27v.16s0,.11,0,.11c0,.08,0,.17-.01.26,0,.06-.01.13-.01.19-.14,6.25-3.11,11.94-8.13,15.6-2.08,1.51-4.19,2.45-6.28,2.78-8.46,1.33-15.52-7.34-17.48-10.04-3.54-4.84-5.42-9.69-5.44-14.04-.03-4.4,1.87-7.94,5.82-10.81,3.41-2.5,7.52-3.8,11.68-3.8,1.99,0,3.98.3,5.92.9.11.05.21.09.31.12l.97.32c5.57,1.78,11.47,2.06,17.11.9-2.88,5.09-4.43,10.82-4.44,16.67,0,.05,0,.11,0,.17ZM63.41,331.43s-.03.09-.04.14c-.03.12-.07.25-.12.39l-.04.12c-.06.15-.11.29-.16.43l-.09.25c-2.08,5.92-6.67,10.41-12.57,12.33-.89.29-1.81.51-2.72.66-.76.12-1.5.18-2.21.18-9.75,0-14.26-11.55-15.42-15.09,0,0,0,0,0,0-1.87-5.72-2.16-10.91-.84-15.03,1.34-4.19,4.24-6.97,8.86-8.49,2-.65,4.06-.97,6.12-.97,4.15,0,8.26,1.3,11.68,3.79.02.02.05.04.07.06h0s.84.63.84.63c4.71,3.39,10.23,5.48,16.03,6.12-4.33,3.96-7.58,8.93-9.41,14.49ZM33.34,277.26c-13.44,0-14.92-13.88-14.93-19.85,0-6,1.33-11.04,3.86-14.56,2.57-3.59,6.19-5.33,11.07-5.33,6.29,0,12.25,3.02,15.98,8.08.04.07.09.15.14.21l.58.81c3.42,4.69,8.02,8.38,13.35,10.79-5.34,2.43-9.97,6.15-13.42,10.88-.03.04-.06.09-.09.13-.05.08-.11.15-.16.23l-.57.75c-3.14,4.1-7.63,6.8-12.68,7.6-.94.16-1.95.24-3.11.25ZM50.36,169.69c6.01,1.94,10.76,6.67,12.72,12.65.02.06.03.12.05.19h0l.3.98c1.81,5.52,5.05,10.45,9.36,14.39-5.81.66-11.36,2.77-16.12,6.2-.05.04-.1.07-.14.11-.08.07-.18.14-.27.2-.03.02-.07.05-.1.07l-.1.08c-.1.06-.19.12-.28.18l-.24.16c-2.46,1.7-5.31,2.85-8.22,3.32-3.15.48-6.22.22-9.19-.73-3.87-1.26-6.52-3.35-8.07-6.41-3.16-6.19-.81-14.64,0-17.09,1.85-5.71,4.67-10.08,8.15-12.65,3.56-2.61,7.53-3.15,12.16-1.64ZM87.55,110.44c5.13,3.72,8.18,9.72,8.17,16.07v1.11c0,5.81,1.55,11.5,4.44,16.58-5.74-1.17-11.68-.87-17.28.94l-.13.04c-.13.04-.26.08-.38.13l-.21.06c-.09.03-.18.05-.28.08l-.22.06s-.08.02-.11.03c-.78.25-1.64.45-2.62.61-1,.16-2.06.24-3.15.24-4.15,0-8.14-1.3-11.55-3.76-10.9-7.92-3.93-20.02-.42-24.85,3.52-4.86,7.55-8.15,11.66-9.53,4.18-1.38,8.13-.66,12.09,2.2ZM130.45,59.74c4.37,0,7.89,1.91,10.76,5.83,3.7,5.06,4.76,11.68,2.85,17.7-.03.06-.05.12-.07.18l-.34.99c-1.77,5.53-2.05,11.42-.88,17.13-5.1-2.89-10.83-4.44-16.7-4.46h0c-.06,0-.12,0-.18,0-.11,0-.23,0-.35,0h-.19c-.1,0-.21,0-.31-.01h-.26s-.04-.01-.06-.01c-6.27-.16-11.95-3.13-15.6-8.16-2.4-3.29-3.31-6.54-2.77-9.93,1.08-6.86,7.95-12.31,10.04-13.82,4.85-3.54,9.7-5.42,14.03-5.46h.07ZM197.61,30.61c4.2,1.34,6.98,4.23,8.49,8.86,1.95,5.98.93,12.59-2.72,17.7-.06.07-.11.14-.17.21l-.61.8c-3.39,4.72-5.47,10.24-6.12,16.04-3.96-4.33-8.93-7.58-14.5-9.41-.04-.01-.09-.03-.13-.04-.14-.04-.29-.08-.37-.11l-.18-.06c-.14-.06-.28-.11-.43-.16l-.23-.08c-5.9-2.08-10.39-6.66-12.32-12.57-1.26-3.86-1.12-7.22.43-10.28,3.14-6.19,11.38-9.27,13.83-10.07,5.7-1.87,10.89-2.16,15.02-.84ZM329.43,31.46c5.7,1.83,10.08,4.65,12.66,8.15,2.61,3.57,3.15,7.55,1.65,12.17-1.96,6.03-6.72,10.79-12.71,12.73-.05.01-.1.03-.15.04l-.95.31c-5.52,1.81-10.46,5.04-14.39,9.35-.66-5.82-2.77-11.37-6.21-16.13-.03-.04-.06-.08-.1-.13-.05-.06-.1-.13-.15-.21-.04-.05-.07-.11-.11-.16l-.1-.13-.24-.36s-.08-.12-.1-.15c-3.56-5.14-4.5-11.48-2.59-17.4,4.15-12.82,17.81-9.93,23.49-8.09ZM395.65,65.21c4.87,3.51,8.16,7.55,9.52,11.67,1.39,4.18.67,8.13-2.19,12.07-3.68,5.08-9.62,8.13-15.91,8.18-.12-.01-.22-.01-.26-.01h-1.02c-5.8,0-11.49,1.56-16.58,4.45,1.17-5.74.88-11.66-.91-17.24-.06-.2-.13-.4-.2-.58h0c-.06-.26-.11-.47-.2-.76-1.8-5.99-.74-12.32,2.92-17.36,2.39-3.3,5.19-5.16,8.58-5.7,6.84-1.09,14.17,3.76,16.25,5.28ZM406.45,127.77c-.08,6.37-2.69,12.45-7.37,17.11-3.83,3.81-8.57,6.25-13.69,7.04-1.26.2-2.49.29-3.65.29-5.65,0-10.87-2.09-14.68-5.9-8.39-8.4-7.73-22.76,1.46-31.99,4.71-4.69,10.77-7.31,17.07-7.37.07,0,.14,0,.21.01h.94c4.38.2,7.96,2.95,12.33,7.32,4.56,4.56,7.23,8.09,7.37,12.58v.43c0,.15,0,.3.01.47ZM416.3,127.31c0-.12,0-.25,0-.38v-.2c0-.1,0-.21.01-.32v-.31c.17-6.26,3.13-11.95,8.15-15.6,4.81-3.5,9.62-3.85,14.71-1.08,4.47,2.44,7.82,6.64,9.05,8.34,3.54,4.87,5.42,9.72,5.44,14.04.03,4.4-1.87,7.94-5.81,10.81-5.13,3.73-11.79,4.78-17.82,2.81-.04-.01-.07-.02-.11-.03l-.95-.32c-5.53-1.78-11.42-2.06-17.14-.88,2.89-5.1,4.45-10.84,4.46-16.7,0-.06,0-.12,0-.18ZM448.59,183.39s.03-.09.04-.14c.02-.07.05-.14.07-.21l.06-.17s.02-.07.03-.11l.03-.12c.05-.12.09-.24.13-.36l.07-.2c2.1-5.92,6.68-10.42,12.58-12.33,3.86-1.26,7.22-1.12,10.28.43,6.19,3.14,9.27,11.38,10.07,13.83,1.86,5.7,2.16,10.9.84,15.03-1.33,4.19-4.23,6.97-8.87,8.48-1,.33-2.01.57-3.03.73-5.12.82-10.47-.45-14.7-3.48-.05-.05-.11-.09-.16-.13l-.82-.61c-4.71-3.4-10.22-5.49-16.03-6.14,4.33-3.96,7.57-8.93,9.39-14.5ZM127.23,408.09c.1.04.2.09.29.14-.09-.05-.19-.1-.29-.14ZM366.04,339.45c-.12-.12-.25-.23-.38-.34-.08-.07-.16-.14-.18-.16l-7.15-7.19,9.6,4.93c4.96,2.54,10.77,2.77,15.19.6l.9-.44c-.16,5.69,1.28,11.43,4.13,16.57-5.77-1.13-11.69-.73-17.05,1.18l.12-.79s0,0,0,0c.74-4.86-1.21-10.33-5.17-14.35ZM352,389.54c-4.88-2.71-10.3-4.16-15.7-4.16-.29,0-.58,0-.87.01l.37-.73s0,0,0,0c2.2-4.38,2.03-10.18-.48-15.18-.13-.25-.27-.49-.42-.73l-4.56-9,7.6,7.66c3.91,3.94,9.38,5.95,14.26,5.24l.98-.14c-1.91,5.36-2.31,11.26-1.19,17.03ZM278.96,402.55c-.58.09-1.16-.03-1.68-.31-.01,0-.02-.01-.03-.02l-6.66-3.49c-1.69-.89-3.05-3.09-3.45-5.61-.39-2.5.24-5.02,1.59-6.41l5.29-5.33c.57-.58,1.21-.87,1.89-.87.44,0,.9.12,1.36.37l6.65,3.48c1.51.79,2.76,2.65,3.28,4.87l.11.73c.4,2.53-.22,5.05-1.58,6.41l-5.29,5.34c-.47.47-.98.76-1.49.83ZM233.65,402.54c-.18.03-.44.04-.58,0-.03,0-.06-.01-.09-.02-.55-.09-1.07-.38-1.52-.85l-5.25-5.34c-1.33-1.38-1.95-3.9-1.57-6.39.42-2.54,1.8-4.74,3.5-5.62l6.71-3.45c.48-.25.92-.35,1.32-.35.83,0,1.48.44,1.92.88l5.24,5.38c1.19,1.22,1.81,3.38,1.62,5.64l-.11.72c-.4,2.52-1.77,4.73-3.49,5.61l-6.68,3.44c-.33.17-.64.27-1.02.33ZM176.14,384.52l.44.89c-5.69-.16-11.44,1.29-16.57,4.13,1.13-5.77.73-11.69-1.18-17.05l.77.12c1.45.24,2.9.23,4.49-.02,3.57-.56,7.05-2.37,9.82-5.09.15-.15.29-.3.42-.45l7.31-7.29-4.92,9.59c-2.54,4.96-2.76,10.78-.58,15.18ZM140.76,353.63l.14.96c-3.38-1.2-6.98-1.81-10.62-1.81-2.13,0-4.27.21-6.4.62,2.86-5.13,4.3-10.88,4.15-16.56l.73.37c2.03,1,4.39,1.53,6.82,1.53.9,0,1.82-.07,2.79-.23,1.88-.29,3.73-.89,5.52-1.78.26-.13.52-.28.82-.46l8.96-4.53-7.66,7.61c-3.93,3.91-5.95,9.37-5.26,14.28ZM145.92,175.31c.15.15.31.29.46.43l7.27,7.3-9.58-4.92c-2.69-1.38-5.63-2.08-8.47-2.08-2.39,0-4.7.49-6.72,1.49l-.9.44c.16-5.68-1.28-11.42-4.12-16.56,5.77,1.14,11.73.72,17.05-1.19l-.12.8c-.74,4.86,1.21,10.33,5.12,14.27ZM160,125.29c5.14,2.86,10.89,4.3,16.58,4.14l-.36.72c-2.21,4.36-2.03,10.17.46,15.15.13.26.28.51.42.74l4.57,9.03-7.61-7.66c-3.39-3.42-7.96-5.38-12.3-5.38-.66,0-1.32.05-1.96.14l-.98.14c1.91-5.36,2.31-11.26,1.19-17.03ZM233.07,112.27c.55-.08,1.12.03,1.7.33l6.66,3.49c1.69.89,3.05,3.09,3.45,5.58.39,2.53-.24,5.06-1.59,6.43l-5.3,5.34c-.45.46-.96.74-1.56.84-.07.01-.17.02-.31.02-.45,0-.92-.12-1.35-.35,0,0-.02,0-.02-.01l-6.66-3.47c-1.51-.79-2.76-2.66-3.29-4.87l-.11-.73c-.39-2.53.23-5.04,1.59-6.41l5.3-5.35c.45-.46.96-.74,1.5-.83ZM279.06,112.3c.53.08,1.05.37,1.5.84l5.25,5.37c1.34,1.36,1.95,3.87,1.55,6.37-.41,2.53-1.78,4.74-3.49,5.62l-6.68,3.44c-.31.16-.63.27-.97.34-.82.11-1.61-.16-2.3-.86l-5.25-5.38c-1.19-1.2-1.8-3.35-1.62-5.62l.13-.75c.39-2.52,1.76-4.72,3.48-5.61l6.68-3.44c.59-.3,1.16-.41,1.72-.32ZM335.87,130.3l-.44-.88c1.94.06,3.9-.07,5.77-.38,3.78-.59,7.42-1.87,10.79-3.75-1.13,5.77-.72,11.68,1.19,17.04l-.8-.12c-4.84-.76-10.32,1.2-14.29,5.12-.18.18-.35.38-.51.56l-7.23,7.2,4.93-9.61c2.55-4.96,2.77-10.78.58-15.19ZM371.23,161.21l-.15-1c5.36,1.91,11.27,2.32,17.04,1.19-2.86,5.14-4.31,10.89-4.15,16.57l-.72-.36c-4.41-2.21-10.21-2.03-15.22.51-.26.14-.49.28-.73.42l-8.98,4.54,7.66-7.62c3.95-3.92,5.97-9.38,5.25-14.25ZM350.88,363.17c-.23.03-.44.05-.68.05-1.8,0-3.82-.95-5.42-2.54-1.8-1.81-2.78-4.22-2.49-6.12l1.15-7.42c.2-1.33,1.01-2.13,2.33-2.32l7.43-1.1c1.69-.24,3.8.52,5.53,2l.52.53c1.81,1.81,2.78,4.21,2.49,6.11l-1.15,7.43c-.1.65-.36,1.2-.73,1.58-.36.36-.88.61-1.51.71-.02,0-.04,0-.06,0h0s-7.41,1.09-7.41,1.09ZM314.12,337.36c-.88-.34-1.77-.59-2.67-.75h0l-3.67-.62c.78-1.67,1.27-3.46,1.47-5.31,1.83.38,3.7.46,5.54.23l-.54,3.51c-.15.95-.19,1.93-.13,2.93ZM197.82,334.62l-.55-3.69c1.8.21,3.68.13,5.51-.25.2,1.86.71,3.68,1.49,5.37l-3.51.58c-.95.16-1.9.42-2.83.79.06-.95.02-1.88-.11-2.79ZM174.57,176.05c1.83-1.82,3.02-4.21,3.43-6.9l.56-3.64,7.26,7.32c1.8,1.8,2.78,4.2,2.5,6.09l-1.15,7.43c-.21,1.34-1,2.13-2.34,2.33l-7.48,1.09c-.17.03-.38.04-.6.04-1.81,0-3.84-.96-5.45-2.58l-7.21-7.26,3.53-.52c.05,0,.11-.02.16-.03,0,0,.01,0,.02,0,2.66-.43,5-1.61,6.77-3.39ZM197.87,177.46c.88.34,1.78.6,2.68.75l3.69.63c-.77,1.67-1.26,3.47-1.46,5.3-1.15-.24-2.32-.36-3.49-.36-.69,0-1.39.04-2.07.12l.54-3.52s0,0,0,0c.14-.95.19-1.93.13-2.92ZM314.19,180.19l.55,3.7c-1.84-.22-3.7-.14-5.51.24-.21-1.85-.72-3.66-1.5-5.35l3.53-.57c.95-.16,1.89-.42,2.81-.78-.05.94-.01,1.86.12,2.76ZM357.46,317.26l.59,3.63-9.15-4.7c-2.28-1.17-3.96-3.16-4.27-5.05l-1.2-7.44c-.22-1.32.3-2.32,1.5-2.91l6.75-3.34c1.71-.86,4.29-.66,6.57.52l9.12,4.68-3.2,1.59c-2.44,1.19-4.37,3.06-5.58,5.4-1.18,2.32-1.57,4.96-1.12,7.62ZM222.86,345.48c1.82-.36,3.57-1.01,5.17-1.93.77,1.7,1.81,3.27,3.08,4.63l-3.17,1.63c-.86.44-1.67.98-2.44,1.61-.24-.91-.56-1.78-.97-2.6l-1.66-3.35ZM153.45,309.72c-1.16-2.31-3.07-4.18-5.5-5.4l-3.28-1.66,9.19-4.65c2.29-1.15,4.87-1.34,6.58-.48l6.72,3.39c1.2.6,1.71,1.61,1.49,2.94l-1.26,7.39c-.33,1.91-2.01,3.88-4.29,5.02l-9.14,4.62.6-3.53c.45-2.72.07-5.37-1.11-7.66ZM154.54,197.58l-.59-3.64,9.16,4.7c2.28,1.18,3.96,3.16,4.26,5.05l1.21,7.42c.22,1.32-.3,2.34-1.51,2.93l-6.75,3.34c-.4.21-.89.36-1.38.44-1.67.24-3.51-.1-5.18-.96,0,0,0,0,0,0l-9.11-4.68,3.19-1.58c2.46-1.2,4.39-3.07,5.59-5.41,1.17-2.28,1.55-4.91,1.11-7.6ZM289.14,169.34c-1.81.35-3.55,1-5.16,1.93-.77-1.7-1.81-3.26-3.07-4.63l3.18-1.64c.85-.44,1.67-.98,2.43-1.61.24.91.57,1.78.97,2.59l1.66,3.35ZM358.55,205.12c1.17,2.3,3.08,4.16,5.51,5.37l3.29,1.67-9.19,4.65c-.91.46-1.86.77-2.77.92-.49.07-.9.1-1.29.1-.96,0-1.83-.19-2.54-.54,0,0,0,0,0,0l-6.71-3.38c-1.2-.61-1.71-1.62-1.49-2.94l1.26-7.4c.33-1.9,2.01-3.87,4.29-5.02l9.15-4.62-.6,3.52c-.46,2.67-.09,5.32,1.09,7.68ZM401.13,280.44c-.09.54-.38,1.05-.85,1.52l-5.36,5.25c-.82.79-2.04,1.35-3.43,1.57-.43.07-.9.1-1.45.1s-1.07-.03-1.51-.11c0,0,0,0,0,0-2.52-.4-4.72-1.77-5.6-3.49l-3.45-6.68c-.62-1.19-.43-2.32.53-3.26l5.36-5.25c1.07-1.04,2.88-1.65,4.86-1.65.26,0,.53.01.8.03l.72.11c2.52.41,4.73,1.79,5.61,3.49l3.43,6.67c.31.6.42,1.18.34,1.7ZM111.2,278.65l3.49-6.67c.88-1.69,3.08-3.03,5.6-3.43,2.52-.4,5.03.23,6.4,1.58l5.34,5.29c.95.94,1.13,2.07.5,3.26l-3.48,6.64c-.78,1.5-2.64,2.76-4.85,3.3l-.76.11c-.55.09-1.04.13-1.5.13-1.98,0-3.81-.64-4.91-1.7l-5.33-5.31c-.47-.45-.75-.97-.83-1.47-.08-.55.04-1.13.34-1.72ZM110.89,234.35c.08-.53.37-1.04.84-1.5l5.37-5.24c1.37-1.34,3.88-1.95,6.37-1.56,2.53.41,4.74,1.78,5.62,3.49l3.45,6.68c.62,1.19.43,2.31-.52,3.25l-5.38,5.25c-.78.77-1.99,1.32-3.39,1.54-.81.13-1.51.14-2.24.08l-.75-.13c-2.52-.4-4.72-1.77-5.6-3.47l-3.45-6.7c-.3-.57-.41-1.14-.31-1.7ZM371,231.72c-1.26,2.43-1.72,5.07-1.32,7.65.4,2.54,1.63,4.9,3.56,6.81l2.62,2.6-10.16,1.58c-2.64.38-5.08-.24-6.43-1.58l-5.34-5.31c-.95-.93-1.12-2.05-.5-3.23l3.49-6.65c.9-1.71,3.11-3.06,5.63-3.46l10.11-1.56-1.66,3.15ZM329.28,310.65c.27-.03.54-.07.81-.11,0,0,0,0,0,0,1.58-.25,3.1-.72,4.53-1.39l.57,3.51c.16.95.42,1.9.79,2.82-.95-.06-1.88-.02-2.79.11l-3.67.55c.22-1.83.13-3.68-.25-5.49ZM182.5,316.21l-3.52-.54c-.67-.1-1.36-.16-2.06-.16-.29,0-.58,0-.87.03.34-.88.6-1.78.75-2.68,0,0,0,0,0,0l.62-3.67c1.67.78,3.46,1.27,5.31,1.47-.38,1.83-.46,3.71-.23,5.56ZM279.81,201.31c-.62,1.91-2.23,3.29-4.17,3.59-.32.05-.6.07-.87.07-.54,0-1.08-.09-1.62-.26,0,0,0,0,0,0-1.35-.43-2.43-1.36-3.07-2.63-.64-1.26-.75-2.69-.31-4.04.43-1.33,1.37-2.42,2.63-3.06.76-.38,1.57-.58,2.39-.58.55,0,1.1.09,1.64.26.29.09.52.19.79.33.98.49,1.77,1.28,2.29,2.28.64,1.25.75,2.68.31,4.03ZM256.11,191.43c.23-.01.47.01.77.06,1.08.17,2.09.69,2.89,1.48,1,1,1.55,2.33,1.55,3.75,0,2.57-1.91,4.81-4.5,5.21-.25.04-.51.07-.79.07-1.42,0-2.74-.55-3.73-1.54,0,0,0,0,0,0-.99-.99-1.54-2.32-1.54-3.73s.55-2.75,1.56-3.75c1-.99,2.31-1.54,3.79-1.54h.01ZM236.47,194.45c.27-.04.55-.06.82-.06.82,0,1.63.2,2.39.59,1.25.63,2.18,1.72,2.62,3.06.9,2.77-.62,5.76-3.37,6.65-.33.1-.62.18-.83.21-.3.04-.59.07-.84.07-.82,0-1.63-.2-2.39-.58h0c-1.26-.64-2.19-1.73-2.62-3.08-.9-2.77.63-5.76,3.4-6.66.25-.08.54-.15.83-.2ZM190.08,256.55c.19-1.11.7-2.12,1.49-2.91.99-.99,2.31-1.53,3.73-1.53,2.91,0,5.28,2.36,5.28,5.28,0,1.41-.54,2.73-1.54,3.72-.82.82-1.78,1.31-2.92,1.48-.27.05-.54.07-.83.07-2.9,0-5.27-2.37-5.27-5.29,0-.27.02-.57.06-.83ZM193.55,273.75c.65-1.28,1.72-2.19,3.09-2.63.54-.17,1.08-.26,1.62-.26,2.22,0,4.3,1.42,5.03,3.64.44,1.37.33,2.77-.31,4.05-.63,1.25-1.72,2.17-3.07,2.61-.31.1-.56.16-.84.2-.27.05-.53.07-.78.07-2.3,0-4.32-1.47-5.03-3.66,0,0,0,0,0,0-.08-.25-.15-.53-.2-.82-.17-1.1,0-2.21.51-3.2ZM225.56,209.12c-.22,1.39-.97,2.62-2.12,3.45-.67.49-1.45.82-2.23.95-.58.08-1.03.09-1.72,0-1.38-.23-2.59-.97-3.41-2.12-.83-1.14-1.17-2.54-.95-3.93.22-1.39.97-2.62,2.12-3.45.22-.16.46-.31.71-.45.99-.5,2.1-.68,3.22-.5,1.38.22,2.61.97,3.44,2.12.83,1.14,1.16,2.54.94,3.94ZM202.98,236.23c.64,1.26.76,2.69.32,4.04-.43,1.33-1.36,2.42-2.67,3.08-.47.25-.97.41-1.57.51-.61.1-1.59.06-2.42-.2-2.77-.9-4.3-3.89-3.41-6.62.1-.29.22-.57.33-.81.53-1.01,1.33-1.81,2.34-2.32,1.24-.64,2.66-.75,4.01-.31,1.34.43,2.43,1.37,3.07,2.62ZM184.82,246.14c-.55,3.47-3.24,6.17-6.7,6.7-.85.13-1.67.13-2.54,0-2.12-.34-3.99-1.48-5.25-3.22-1.27-1.75-1.79-3.88-1.45-6,.71-4.4,4.85-7.41,9.24-6.71,2.13.33,4,1.48,5.27,3.23,1.27,1.75,1.78,3.88,1.44,6.01ZM165.43,257.42c-1.38,1.26-2.55,2.73-3.46,4.36l-2.53-2.51s0,0,0,0c-.68-.67-1.45-1.28-2.28-1.81.79-.51,1.51-1.09,2.17-1.73l2.67-2.62c.9,1.62,2.06,3.07,3.44,4.32ZM168.88,271.21c-.34-2.12.17-4.25,1.44-6,1.27-1.74,3.14-2.89,5.27-3.22.43-.07.86-.1,1.28-.1,1.67,0,3.3.53,4.69,1.53,1.75,1.27,2.91,3.14,3.25,5.27.34,2.12-.18,4.25-1.45,5.99-1.27,1.75-3.15,2.9-5.29,3.24-.38.06-.78.09-1.25.09-3.92,0-7.34-2.93-7.95-6.81,0,0,0,0,0,0ZM165.24,232.51l-1.63-3.17c-.44-.85-.98-1.66-1.61-2.42.91-.24,1.77-.57,2.58-.98l3.37-1.67c.36,1.8,1.02,3.55,1.93,5.16-1.71.77-3.28,1.81-4.64,3.08ZM163.55,285.67l1.73-3.31c1.35,1.25,2.9,2.27,4.58,3.03-.93,1.63-1.59,3.39-1.94,5.22l-3.17-1.6c-.86-.43-1.78-.77-2.74-1.02.6-.73,1.12-1.51,1.54-2.32ZM216.03,303.39c.82-1.14,2.04-1.88,3.44-2.1,1.39-.22,2.79.11,3.94.96,1.14.82,1.88,2.04,2.11,3.44.22,1.4-.11,2.8-.94,3.94-.83,1.14-2.05,1.88-3.41,2.1-.31.04-.61.07-.89.07-1.11,0-2.17-.35-3.09-1.01-.27-.2-.46-.36-.64-.54-.79-.79-1.3-1.79-1.48-2.89-.22-1.42.1-2.79.96-3.95ZM219.12,286.94c-.28-.59-.64-1.19-1.16-1.94-1.65-2.26-3.95-3.93-6.59-4.83.61-1.99.76-4.08.43-6.15-.12-.74-.29-1.46-.51-2.11-.87-2.67-2.55-4.98-4.78-6.65,1.2-1.69,1.99-3.63,2.32-5.71.11-.7.17-1.43.17-2.18,0-2.79-.89-5.5-2.49-7.79,1.66-1.24,3.01-2.85,3.98-4.74.34-.68.61-1.33.83-2,.86-2.67.86-5.52.04-8.18,1.97-.67,3.74-1.77,5.23-3.25.48-.48.93-1,1.42-1.67,1.64-2.26,2.52-4.98,2.57-7.77,2.08-.03,4.1-.52,5.92-1.46.61-.29,1.23-.67,1.91-1.15,2.27-1.66,3.95-3.97,4.84-6.6,1.98.61,4.1.77,6.16.43.83-.13,1.54-.31,2.11-.51,2.67-.87,4.98-2.55,6.65-4.77,1.69,1.2,3.64,2,5.76,2.33.71.1,1.42.15,2.14.15,2.8,0,5.5-.9,7.78-2.5,1.24,1.67,2.86,3.04,4.78,4.02.69.33,1.32.59,1.95.8,2.68.86,5.53.86,8.2.03.67,1.97,1.78,3.76,3.28,5.27.51.5,1.06.96,1.62,1.37,2.27,1.66,4.99,2.54,7.78,2.58.03,2.08.53,4.11,1.48,5.99.35.69.73,1.3,1.14,1.86,1.66,2.26,3.97,3.93,6.6,4.83-.61,1.97-.77,4.07-.44,6.16.12.78.31,1.5.52,2.1.86,2.67,2.54,4.99,4.77,6.66-1.19,1.68-1.98,3.62-2.32,5.71-.11.66-.16,1.37-.16,2.17,0,2.81.88,5.52,2.49,7.8-1.67,1.25-3.02,2.85-3.97,4.72-.33.64-.61,1.32-.84,2.02-.86,2.67-.86,5.52-.03,8.19-1.97.67-3.75,1.77-5.23,3.25-.5.5-.97,1.04-1.42,1.66-1.65,2.26-2.53,4.98-2.57,7.77-2.07.03-4.09.53-5.95,1.47-.65.32-1.29.71-1.89,1.15-2.27,1.65-3.94,3.96-4.84,6.59-1.99-.61-4.08-.76-6.15-.43-.8.13-1.49.29-2.1.5-2.67.86-4.99,2.54-6.66,4.78-1.69-1.2-3.63-1.99-5.71-2.31-.74-.12-1.48-.18-2.18-.18-2.8,0-5.51.89-7.79,2.5-1.24-1.66-2.85-3.01-4.73-3.96-.63-.32-1.3-.6-2-.84-1.35-.44-2.74-.65-4.14-.65s-2.73.21-4.05.61c-.66-1.96-1.77-3.75-3.26-5.24-.55-.55-1.11-1.02-1.65-1.4-2.26-1.66-4.98-2.54-7.77-2.58-.03-2.08-.52-4.1-1.46-5.92ZM336.45,252.84c-.46.07-.9.1-1.31.1-3.92,0-7.34-2.93-7.95-6.81h0c-.34-2.13.17-4.26,1.44-6.01,1.27-1.74,3.14-2.89,5.27-3.22.43-.07.85-.1,1.28-.1,1.69,0,3.33.53,4.73,1.55,1.75,1.27,2.89,3.14,3.23,5.26.7,4.39-2.31,8.53-6.68,9.22ZM327.18,268.69c.64-3.97,4.08-6.82,7.98-6.82.42,0,.84.03,1.27.1,2.12.33,3.99,1.48,5.26,3.23,1.27,1.75,1.78,3.88,1.45,6-.54,3.46-3.24,6.16-6.69,6.71-.79.12-1.76.12-2.52,0,0,0,0,0-.01,0-4.4-.7-7.41-4.84-6.72-9.22ZM346.56,257.41c1.38-1.26,2.55-2.74,3.46-4.36l2.54,2.52c.68.67,1.45,1.28,2.28,1.81-.8.51-1.53,1.09-2.18,1.73l-2.67,2.62c-.9-1.61-2.06-3.07-3.43-4.32ZM348.46,229.15l-1.74,3.32c-1.35-1.24-2.91-2.27-4.59-3.03.93-1.63,1.59-3.4,1.95-5.22l3.18,1.6c.86.43,1.78.77,2.74,1.02-.6.73-1.11,1.51-1.54,2.32ZM286.44,305.71c.22-1.4.97-2.62,2.11-3.45.91-.66,1.98-1,3.09-1,.28,0,.56.02.84.07,1.4.22,2.63.97,3.46,2.12,1.71,2.35,1.18,5.67-1.13,7.35-.3.2-.54.35-.77.47-.5.26-1.03.43-1.5.51-.53.08-1.23.08-1.67,0h-.03c-1.39-.22-2.61-.98-3.44-2.11-.83-1.14-1.17-2.54-.95-3.94ZM321.93,258.28c-.18,1.1-.7,2.1-1.5,2.91-.78.79-1.78,1.29-2.86,1.46-.26.04-.57.08-.87.08-2.91,0-5.28-2.37-5.28-5.29,0-1.42.55-2.74,1.55-3.74.99-.99,2.32-1.54,3.72-1.55,2.93,0,5.31,2.39,5.31,5.23,0,.32-.04.64-.07.9ZM318.46,241.08c-.65,1.27-1.74,2.2-3.06,2.63-.27.09-.56.16-.79.2-.33.05-.6.07-.85.07-2.3,0-4.33-1.47-5.04-3.66-.44-1.35-.33-2.78.33-4.04.63-1.25,1.73-2.18,3.07-2.62,2.77-.9,5.75.63,6.65,3.35.09.29.16.59.21.88.17,1.1,0,2.2-.51,3.2ZM295.98,211.43c-.81,1.12-2.07,1.88-3.42,2.1-.31.05-.59.07-.86.07-1.12,0-2.19-.35-3.1-1.01h0c-1.13-.82-1.88-2.04-2.1-3.43-.22-1.41.11-2.81.93-3.95.83-1.14,2.06-1.89,3.45-2.11.28-.04.56-.07.84-.07,1.11,0,2.18.35,3.08,1.01.03.02.06.04.09.06.18.12.38.29.57.48.78.79,1.29,1.8,1.46,2.91.22,1.4-.11,2.79-.95,3.94ZM256.7,323.34c-.17.04-.41.05-.72.05h-.12c-.22,0-.43-.02-.65-.06-.02,0-.05,0-.07-.01-1.1-.17-2.1-.68-2.89-1.48-1-1-1.55-2.33-1.55-3.74,0-2.91,2.37-5.28,5.28-5.28,1.42,0,2.75.55,3.74,1.54,1,1.01,1.55,2.33,1.55,3.73,0,2.58-1.91,4.82-4.45,5.21-.04,0-.08.01-.12.02ZM232.19,313.52c.44-1.35,1.38-2.44,2.64-3.09,1.26-.64,2.69-.76,4.05-.31,1.32.42,2.41,1.35,3.06,2.61.65,1.27.75,2.67.31,4.04-.62,1.91-2.24,3.28-4.18,3.59-.32.05-.6.07-.87.07-.53,0-1.07-.09-1.62-.26-.27-.09-.51-.19-.8-.34-.98-.49-1.76-1.28-2.27-2.27-.64-1.27-.76-2.7-.33-4.03ZM275.57,320.37c-.32.05-.59.07-.85.07-.82,0-1.63-.19-2.39-.58-1.26-.65-2.19-1.74-2.63-3.09-.9-2.75.63-5.74,3.4-6.65,1.34-.43,2.77-.32,4.02.31,1.26.65,2.2,1.75,2.63,3.09.44,1.34.32,2.77-.32,4.03-.64,1.26-1.74,2.2-3,2.61-.37.11-.67.18-.86.21ZM309.02,278.59c-.64-1.26-.75-2.69-.31-4.04.43-1.34,1.36-2.43,2.64-3.08,1.24-.64,2.67-.75,4.02-.31,1.34.43,2.43,1.36,3.07,2.62.64,1.26.75,2.69.31,4.06-.09.27-.18.5-.32.76-.5.99-1.29,1.77-2.31,2.29-.51.27-1.02.44-1.56.52-.23.04-.5.05-.8.05-.57,0-1.12-.09-1.67-.26-1.33-.43-2.42-1.37-3.06-2.62ZM346.77,282.32l1.63,3.17c.44.85.98,1.67,1.61,2.44-.91.24-1.78.57-2.6.97l-3.35,1.66c-.36-1.81-1.01-3.55-1.93-5.16,1.7-.77,3.27-1.81,4.64-3.08ZM310.33,222.61c-.2,1.37-.95,2.58-2.1,3.42-.67.49-1.45.81-2.28.94-.29.05-.55.07-.82.07-1.72,0-3.27-.79-4.27-2.17,0,0,0,0,0,0-.85-1.16-1.17-2.52-.94-3.95.21-1.38.96-2.6,2.1-3.43.94-.68,2.02-1,3.1-1,1.64,0,3.25.75,4.28,2.17.17.23.32.48.44.71.5,1,.68,2.11.49,3.25ZM212.12,220.89c.22,1.4-.11,2.79-.94,3.93-.8,1.12-2,1.86-3.37,2.1-.04,0-.08,0-.11.02-.22.04-.49.06-.81.06-1.11,0-2.18-.35-3.09-1.01-1.14-.83-1.88-2.05-2.1-3.44-.22-1.39.11-2.79.97-3.96.16-.24.33-.43.53-.62.77-.78,1.77-1.28,2.9-1.46,1.38-.22,2.77.1,3.91.94,1.14.83,1.89,2.06,2.11,3.46ZM201.66,292.24c.22-1.39.97-2.61,2.1-3.44,2.36-1.71,5.68-1.19,7.39,1.17.83,1.14,1.17,2.53.94,3.93-.22,1.4-.97,2.63-2.11,3.46-.66.48-1.44.8-2.23.93-.32.05-.6.07-.87.07-1.71,0-3.27-.79-4.28-2.16-.2-.28-.33-.51-.46-.77-.5-.98-.67-2.07-.49-3.18ZM302,297.39s0,0,0,0c-1.14-.83-1.89-2.06-2.11-3.46-.22-1.39.12-2.78.96-3.93.81-1.13,2.03-1.88,3.42-2.1.28-.04.56-.06.83-.06,1.12,0,2.21.35,3.12,1.01,2.35,1.72,2.88,5.03,1.19,7.34-.19.25-.4.5-.56.67-.8.79-1.81,1.3-2.94,1.48-1.31.22-2.77-.12-3.9-.94ZM329.51,198.62l3.54.55c1.01.15,1.95.18,2.9.13-.34.88-.59,1.77-.74,2.66l-.63,3.7c-1.67-.77-3.47-1.27-5.31-1.47.38-1.83.46-3.71.24-5.56ZM334.6,217.36c.98,1.92,1.15,4.11.48,6.16-.67,2.05-2.08,3.71-3.97,4.67-.81.4-1.64.67-2.41.8-.4.06-.83.09-1.28.09-3.07,0-5.82-1.68-7.19-4.39h0c-.98-1.92-1.15-4.11-.49-6.16.67-2.05,2.09-3.72,4.01-4.7,1.15-.59,2.39-.88,3.65-.88.84,0,1.69.13,2.51.4,2.05.67,3.71,2.09,4.69,4.01ZM269.81,170.29c4.39.69,7.4,4.83,6.71,9.23-.55,3.46-3.25,6.16-6.75,6.71-.73.12-1.7.13-2.46,0h-.02c-2.13-.34-4-1.49-5.27-3.24-1.27-1.75-1.78-3.88-1.44-5.99.63-3.97,4.07-6.81,7.96-6.81.42,0,.84.03,1.27.1ZM249.98,182.99c-1.27,1.75-3.14,2.9-5.29,3.24-.37.06-.77.09-1.24.09-3.92,0-7.35-2.92-7.96-6.8-.69-4.4,2.32-8.54,6.72-9.23,2.12-.34,4.25.18,5.99,1.44,1.74,1.27,2.89,3.14,3.22,5.27.34,2.12-.17,4.25-1.44,5.99ZM226.81,182.33c2.01,3.97.43,8.84-3.53,10.87-.76.39-1.56.65-2.36.77-.46.07-.89.1-1.28.1-3.06,0-5.82-1.69-7.22-4.41-.98-1.91-1.14-4.1-.47-6.15.67-2.05,2.09-3.72,4.01-4.69,3.96-2.03,8.83-.45,10.86,3.51ZM191.78,224.7c-1.17,2.32-3.34,3.88-5.97,4.31-.36.06-.76.09-1.23.09-1.26,0-2.52-.3-3.64-.88,0,0-.01,0-.02,0-1.91-.97-3.33-2.63-4-4.67-.67-2.05-.5-4.24.48-6.16.98-1.92,2.64-3.35,4.69-4.01.82-.27,1.67-.4,2.51-.4,1.26,0,2.51.3,3.66.88,3.96,2.02,5.54,6.88,3.52,10.86ZM182.74,204.18c-1.86.21-3.68.72-5.37,1.5l-.58-3.5c-.15-.95-.41-1.9-.78-2.83.94.05,1.86.01,2.77-.12l3.71-.55c-.21,1.83-.13,3.69.24,5.5ZM158.56,240.4c.61,1.18.43,2.3-.54,3.24l-5.37,5.25c-.8.79-2.02,1.34-3.41,1.56-1.07.16-1.76.17-3.03-.02l-10.08-1.63,2.54-2.48c1.98-1.93,3.24-4.31,3.62-6.87.42-2.55-.03-5.17-1.28-7.59l-1.69-3.27,10.17,1.63c2.54.42,4.74,1.78,5.61,3.49l3.45,6.7ZM140.99,283.1c1.27-2.42,1.72-5.06,1.32-7.65-.4-2.55-1.63-4.91-3.56-6.82l-2.62-2.59,10.18-1.58c2.53-.4,5.04.22,6.41,1.59l5.34,5.28c.95.94,1.12,2.07.5,3.26l-3.47,6.64c-.89,1.68-3.04,3.02-5.5,3.44-.05,0-.09.01-.14.02l-10.12,1.57,1.66-3.17ZM184.6,301.87c-3.05,0-5.81-1.69-7.2-4.42,0,0,0,0,0,0-.98-1.91-1.15-4.09-.48-6.14.67-2.05,2.09-3.72,4.01-4.7,1.14-.58,2.38-.88,3.64-.88.84,0,1.69.13,2.51.4,2.06.67,3.72,2.09,4.7,4,2.02,3.97.44,8.84-3.49,10.85-.83.41-1.62.67-2.45.8-.41.07-.82.1-1.24.1ZM242.19,344.53c-4.38-.69-7.39-4.83-6.71-9.23.7-4.4,4.84-7.41,9.25-6.71,2.12.33,3.98,1.48,5.25,3.23,1.27,1.75,1.79,3.88,1.45,6-.56,3.47-3.25,6.17-6.71,6.71-.81.13-1.61.13-2.53,0ZM260.57,337.83c-.34-2.12.18-4.25,1.45-6,1.27-1.75,3.14-2.89,5.27-3.23.43-.07.85-.1,1.28-.1,1.68,0,3.32.53,4.72,1.54,1.75,1.27,2.9,3.14,3.23,5.26.69,4.4-2.32,8.55-6.72,9.25-.43.07-.84.11-1.24.11-3.93,0-7.36-2.94-7.98-6.83,0,0,0,0,0,0ZM285.2,332.48c-.98-1.92-1.15-4.12-.48-6.18.67-2.05,2.09-3.71,4.01-4.68,1.91-.98,4.09-1.15,6.14-.48,2.05.67,3.72,2.09,4.7,4.01.98,1.92,1.15,4.11.48,6.16-.67,2.05-2.09,3.71-4.03,4.69-.75.39-1.54.64-2.42.78-.38.07-.79.1-1.19.1-3.06,0-5.82-1.69-7.22-4.41ZM319.74,296.28c-.67-2.05-.49-4.24.49-6.16,2.01-3.96,6.88-5.53,10.85-3.52,3.96,2.03,5.54,6.9,3.51,10.86-1.17,2.29-3.38,3.9-5.96,4.3-1.66.28-3.34,0-4.89-.78-1.92-.98-3.34-2.64-4-4.7ZM353.45,274.43c-.61-1.18-.43-2.3.54-3.24l5.34-5.25c1.39-1.35,3.91-1.95,6.44-1.54l10.1,1.63-2.55,2.5c-1.96,1.92-3.21,4.29-3.63,6.87-.4,2.58.04,5.2,1.29,7.58l1.69,3.28-10.17-1.64c-2.53-.41-4.74-1.78-5.62-3.48l-3.44-6.7ZM379.47,236.15l3.47-6.65c.79-1.5,2.65-2.76,4.87-3.29l.75-.11c2.53-.4,5.05.22,6.41,1.56l5.34,5.3c.47.47.76.97.84,1.51.08.53-.03,1.12-.33,1.69l-3.49,6.65c-.89,1.7-3.09,3.05-5.63,3.45-.46.08-.96.12-1.48.12-1.99,0-3.82-.63-4.91-1.69l-5.33-5.3c-.95-.93-1.13-2.06-.51-3.25ZM300.05,183.5c.67,2.05.5,4.24-.48,6.16-1.17,2.3-3.4,3.91-5.92,4.31-1.82.27-3.44,0-4.92-.77,0,0,0,0,0,0-3.96-2.02-5.55-6.89-3.53-10.86.98-1.91,2.64-3.33,4.69-4,.82-.27,1.66-.4,2.5-.4,1.26,0,2.51.3,3.66.89,1.91.97,3.33,2.63,4,4.67ZM256,166.85c-1.26-1.39-2.74-2.56-4.36-3.46l2.52-2.54c.67-.68,1.27-1.45,1.8-2.29.51.79,1.09,1.53,1.73,2.18l2.62,2.67c-1.61.9-3.07,2.07-4.31,3.44ZM231.06,166.68c-1.25,1.35-2.28,2.91-3.05,4.6-1.63-.93-3.4-1.58-5.22-1.94l1.61-3.19h0c.43-.86.77-1.78,1.02-2.74.73.6,1.51,1.11,2.32,1.53l3.32,1.74ZM211.95,331.32c-.67-2.05-.5-4.24.47-6.16,1.44-2.79,4.28-4.41,7.22-4.41,1.23,0,2.48.28,3.65.88,3.96,2.01,5.54,6.88,3.54,10.84-1.19,2.3-3.41,3.92-6,4.31-.39.07-.79.1-1.21.1-1.28,0-2.51-.3-3.66-.89,0,0,0,0,0,0-1.91-.97-3.34-2.63-4-4.68ZM256.01,347.98c1.26,1.38,2.73,2.56,4.35,3.46l-2.5,2.53c-.68.68-1.29,1.45-1.82,2.28-.51-.79-1.09-1.52-1.72-2.17,0,0,0,0,0,0l-2.61-2.67c1.61-.9,3.06-2.05,4.31-3.43ZM287.61,348.66c-.44.86-.78,1.78-1.03,2.75-.73-.6-1.51-1.12-2.33-1.54l-3.31-1.73c1.25-1.35,2.28-2.91,3.05-4.59,1.62.93,3.39,1.58,5.22,1.95l-1.6,3.17ZM387.16,192.47l-1.27,7.4c-.32,1.89-1.99,3.86-4.25,5.01-.89.45-1.85.76-2.8.91-1.44.23-2.76.07-3.8-.44l-6.69-3.38c-1.2-.61-1.72-1.62-1.5-2.94l1.26-7.41c.29-1.68,1.67-3.46,3.63-4.64l.63-.33c2.3-1.16,4.9-1.34,6.61-.48l6.73,3.4c.57.28.99.68,1.26,1.2.23.45.3,1.04.2,1.68ZM340.61,187.23c-1.33,1.32-3.01,2.22-4.61,2.48-.41.07-1.04.08-1.55.01l-7.41-1.14c-1.32-.2-2.13-1.01-2.32-2.33l-1.09-7.44c-.28-1.9.72-4.29,2.54-6.1l7.26-7.22.52,3.55c.41,2.71,1.6,5.11,3.43,6.95s4.22,3.02,6.88,3.43l3.65.56-7.29,7.25ZM318.39,206.44c-1.22,1.21-2.75,2-4.41,2.26-.54.08-.94.11-1.3.11-2.15,0-4.18-.84-5.72-2.36-3.14-3.15-3.14-8.26,0-11.4,3.16-3.15,8.29-3.15,11.43,0,1.51,1.51,2.35,3.53,2.35,5.68,0,2.16-.83,4.19-2.35,5.71ZM283.19,150.91c-.4,2.53-1.77,4.73-3.49,5.61l-6.66,3.44c-.32.16-.65.27-1.03.34-.1.02-.21.03-.32.03-.69,0-1.33-.3-1.9-.88h0s-5.24-5.36-5.24-5.36c-1.34-1.38-1.95-3.9-1.55-6.43l1.63-10.1,2.49,2.54c1.91,1.97,4.29,3.22,6.86,3.62,2.54.41,5.17-.03,7.6-1.28l3.26-1.69-1.64,10.17ZM237.98,143.72c2.55-.4,4.9-1.63,6.81-3.56l2.59-2.61,1.57,10.17c.39,2.54-.23,5.06-1.58,6.42l-5.28,5.33c-.48.48-1,.76-1.53.85-.54.08-1.16-.04-1.73-.33l-6.65-3.49c-1.72-.9-3.07-3.11-3.46-5.64l-1.57-10.11,3.15,1.65c1.86.97,3.82,1.47,5.83,1.47.64,0,1.25-.05,1.84-.15ZM205.05,206.44c-1.22,1.21-2.76,1.99-4.41,2.26-.52.08-.93.11-1.3.11-2.16,0-4.18-.84-5.69-2.36,0,0,0,0,0,0-1.53-1.52-2.37-3.55-2.37-5.71s.84-4.18,2.36-5.69c1.52-1.52,3.55-2.36,5.71-2.36s4.19.84,5.71,2.36c3.14,3.15,3.14,8.26,0,11.4ZM126.37,189.48l6.73-3.34c1.72-.85,4.29-.65,6.55.51,2.28,1.17,3.95,3.15,4.26,5.05l1.21,7.41c.22,1.33-.3,2.34-1.5,2.93l-6.75,3.34c-.4.2-.88.35-1.38.44-1.39.21-2.97-.02-4.47-.64l-.66-.34c-2.27-1.17-3.94-3.15-4.25-5.05l-1.22-7.43c-.11-.63-.03-1.21.23-1.73.23-.46.66-.86,1.25-1.15ZM118.68,255.69c.23.04.45.06.68.08l10.17,1.63-10.68,1.65c-5.49.85-10.33,4.09-12.64,8.46l-.45.87c-3.21-4.69-7.75-8.49-13.07-10.97,5.34-2.48,9.89-6.28,13.1-10.98l.36.7c2.23,4.37,7.02,7.65,12.52,8.55ZM124.85,322.35l1.25-7.42c.32-1.88,1.99-3.83,4.27-5,1.32-.67,2.75-1.02,4.05-1.02.93,0,1.8.18,2.52.54l6.72,3.4c1.19.6,1.71,1.62,1.49,2.93l-1.28,7.42c-.28,1.68-1.65,3.44-3.6,4.62l-.68.34c-.87.45-1.82.76-2.79.9-1.47.24-2.82.07-3.76-.42,0,0-.01,0-.02-.01l-6.71-3.38c-.59-.3-1.01-.69-1.28-1.22-.24-.45-.3-1.02-.19-1.68ZM171.41,327.6c1.81-1.81,4.22-2.78,6.12-2.49l7.41,1.14c1.34.21,2.14,1.01,2.33,2.33l1.09,7.44c.29,1.9-.7,4.3-2.52,6.1l-7.27,7.23-.52-3.54c-.39-2.7-1.57-5.11-3.42-6.97-1.82-1.82-4.21-3-6.89-3.42l-3.65-.56,7.31-7.25ZM193.64,308.37c3.13-3.14,8.25-3.15,11.4-.01,3.15,3.15,3.15,8.28,0,11.41-1.23,1.22-2.77,2.01-4.43,2.27-.45.07-.88.1-1.3.1-2.14,0-4.16-.84-5.69-2.35-1.52-1.52-2.36-3.55-2.36-5.71s.84-4.19,2.37-5.71ZM228.81,363.92c.41-2.53,1.78-4.73,3.49-5.61l6.69-3.45c1.18-.61,2.3-.43,3.24.53l5.25,5.36c1.34,1.38,1.94,3.91,1.54,6.44l-1.63,10.11-2.49-2.55c-1.93-1.97-4.31-3.23-6.88-3.63-.61-.1-1.23-.14-1.84-.14-1.96,0-3.91.49-5.73,1.43l-3.28,1.69,1.64-10.17ZM274.03,371.09c-2.53.4-4.89,1.64-6.81,3.57l-2.59,2.61-1.58-10.17s0,0,0,0c-.4-2.53.22-5.05,1.57-6.41l5.33-5.35c.56-.58,1.19-.86,1.87-.86.44,0,.89.12,1.36.36l6.65,3.48c1.72.91,3.08,3.12,3.46,5.64l1.57,10.12-3.17-1.65c-2.44-1.28-5.08-1.74-7.66-1.33ZM312.68,322.15c-2.14,0-4.18-.84-5.73-2.36-3.14-3.15-3.13-8.28,0-11.42,3.16-3.14,8.29-3.14,11.44,0,3.14,3.14,3.14,8.27.01,11.41-1.23,1.22-2.77,2-4.41,2.26-.47.07-.89.1-1.31.1ZM323.69,335.89l1.15-7.44c.2-1.31,1-2.11,2.33-2.3l7.43-1.1c.21-.03.43-.05.66-.05,1.78,0,3.85.96,5.45,2.58l7.22,7.25-3.55.52c-2.7.41-5.11,1.59-6.95,3.42-1.83,1.81-3.01,4.2-3.42,6.9l-.56,3.64-7.26-7.31s0,0,0,0c-1.8-1.81-2.78-4.21-2.49-6.12ZM385.63,325.35l-6.71,3.33c-.42.21-.92.36-1.44.44-1.53.23-3.43-.09-5.12-.95-2.27-1.16-3.95-3.15-4.26-5.04l-1.2-7.44c-.22-1.31.3-2.32,1.5-2.91l6.73-3.34c1.53-.75,3.77-.68,5.87.2l.66.35c2.28,1.16,3.95,3.14,4.26,5.04l1.22,7.42c.11.65.03,1.22-.22,1.73-.25.49-.67.88-1.27,1.17ZM405.85,267.66c-2.24-4.36-7.04-7.63-12.53-8.54-.32-.05-.62-.08-.92-.11l-9.94-1.61,10.69-1.66h0s.08-.01.12-.02c5.44-.86,10.23-4.08,12.52-8.42l.46-.88c3.21,4.69,7.75,8.49,13.07,10.97-5.33,2.47-9.88,6.27-13.1,10.97l-.37-.72h0ZM402.26,221.42l-.58-.57c-2.86-2.85-7.16-4.46-11.7-4.46-.96,0-1.93.07-2.9.22-.21.04-.43.08-.65.13l-10.14,1.58,9.64-4.87c4.98-2.52,8.58-7.09,9.4-11.93l.17-.98c4.5,3.47,9.99,5.68,15.82,6.39-4.31,4-7.46,9.02-9.06,14.49ZM360.68,155.12l1.09,7.44c.28,1.9-.7,4.28-2.5,6.07-1.33,1.32-3,2.22-4.58,2.47-.55.09-1.1.09-1.43.03-.04,0-.07-.01-.11-.02l-7.42-1.14c-1.33-.2-2.14-1.01-2.33-2.33l-1.08-7.44c-.25-1.69.51-3.8,2-5.53l.51-.51c1.82-1.81,4.23-2.79,6.13-2.49l7.42,1.13c.65.1,1.2.36,1.57.73.4.41.64.92.73,1.58ZM314.77,164.52c-1.17,2.28-3.15,3.95-5.04,4.26l-7.43,1.21s-.07.01-.11.02c-.15.02-.3.03-.45.03-1.31,0-2-.84-2.35-1.55,0,0,0,0,0-.01l-3.35-6.74c-.85-1.71-.65-4.28.53-6.56l4.67-9.11,1.58,3.19c1.2,2.45,3.07,4.37,5.4,5.56,2.3,1.19,4.94,1.58,7.62,1.13l3.64-.59-4.71,9.16ZM196.03,155.97c1.37.24,2.88.25,4.17.04,0,0,.01,0,.02,0,1.23-.21,2.4-.59,3.48-1.13,2.3-1.16,4.17-3.06,5.4-5.5l1.66-3.29,4.65,9.19c1.15,2.29,1.34,4.88.48,6.59l-3.38,6.71c-.61,1.2-1.62,1.71-2.95,1.48l-7.4-1.25c-1.9-.33-3.87-2.01-5.02-4.29l-4.62-9.15,3.53.6ZM167.21,154.15c1.81,1.82,2.79,4.22,2.5,6.11l-1.15,7.44c-.2,1.31-.99,2.11-2.31,2.32-.03,0-.06,0-.08.01l-7.44,1.08c-.18.03-.36.04-.59.04-1.56,0-3.38-.76-4.87-2.05l-.52-.53c-1.81-1.81-2.79-4.21-2.5-6.11l1.14-7.41c.11-.68.36-1.22.72-1.59.4-.4.92-.64,1.6-.73l7.42-1.1c1.9-.27,4.29.71,6.07,2.51ZM126,213.38c.15.07.31.14.46.21.1.04.2.08.22.1l9.01,4.63-10.65-1.73c-5.5-.88-11.1.71-14.62,4.15l-.7.69c-1.61-5.46-4.76-10.47-9.04-14.47.41-.05.82-.1,1.24-.16,0,0,.02,0,.02,0,5.38-.86,10.42-3.03,14.57-6.23l.13.8c.8,4.85,4.36,9.45,9.35,12.03ZM109.75,293.4l.58.57c3.48,3.45,9.06,5.08,14.49,4.25.26-.03.53-.09.79-.16l10.11-1.58-9.64,4.88c-4.99,2.53-8.59,7.11-9.4,11.94l-.16.97c-4.5-3.47-10-5.68-15.83-6.4,4.31-4,7.46-9.02,9.06-14.48ZM151.34,359.7l-1.09-7.43c-.28-1.9.7-4.28,2.5-6.06,1.82-1.81,4.21-2.8,6.11-2.5l7.42,1.13c1.33.21,2.14,1.03,2.33,2.36l1.1,7.41c.24,1.7-.53,3.81-2,5.53l-.53.52c-1.33,1.32-3,2.22-4.6,2.47-.48.08-.83.11-1.56.01l-7.37-1.13c-.68-.11-1.22-.37-1.6-.75-.39-.4-.63-.92-.72-1.58ZM197.23,350.3c1.18-2.28,3.16-3.95,5.05-4.26l7.43-1.21c1.31-.22,2.32.29,2.91,1.51l3.34,6.74c.86,1.72.66,4.29-.52,6.56l-4.68,9.11-1.58-3.2c-1.23-2.47-3.1-4.39-5.41-5.56-1.68-.86-3.54-1.3-5.48-1.3-.71,0-1.42.06-2.14.18l-3.63.59,4.7-9.15ZM315.97,358.86c-2.72-.46-5.37-.07-7.67,1.11-2.31,1.18-4.17,3.08-5.39,5.5l-1.66,3.3-4.64-9.2c-1.15-2.29-1.34-4.88-.47-6.6l3.37-6.7c.61-1.2,1.64-1.72,2.95-1.5l7.4,1.26c1.9.33,3.87,2.01,5.02,4.29l4.63,9.15-3.54-.6ZM386.04,301.46c-.21-.1-.41-.19-.61-.28l-.19-.08-8.94-4.59,10.63,1.72c.96.16,1.97.24,3.06.24,4.51,0,8.73-1.59,11.58-4.37,0,0,0,0,0,0l.71-.7c1.61,5.46,4.75,10.47,9.05,14.48-5.85.71-11.35,2.92-15.85,6.4l-.13-.8c-.8-4.86-4.35-9.45-9.3-12.01ZM322.76,126.51c.49.25.89.68,1.17,1.27l3.35,6.76c.85,1.7.66,4.26-.5,6.52-1.18,2.28-3.17,3.96-5.05,4.27l-7.42,1.21h0s-.07.01-.11.02c-.15.02-.3.03-.45.03-1.32,0-2.01-.84-2.36-1.55,0,0,0,0,0,0l-3.34-6.72c-.76-1.53-.68-3.78.21-5.88l.32-.64c1.18-2.28,3.16-3.95,5.06-4.26l7.41-1.22c.65-.11,1.24-.03,1.73.21ZM312.07,118.07c-4.85.78-9.46,4.34-12.05,9.35-.08.16-.15.33-.22.5-.03.08-.07.17-.07.18l-4.64,9.03,1.73-10.66c.89-5.49-.69-11.09-4.14-14.64l-.68-.69c5.45-1.61,10.47-4.77,14.46-9.05.71,5.84,2.93,11.35,6.41,15.85l-.8.13ZM266.26,107.57c-4.35,2.24-7.61,7.01-8.53,12.47-.06.3-.09.61-.11.91l-1.61,10-1.66-10.67c-.85-5.5-4.08-10.35-8.45-12.65l-.87-.45c4.69-3.21,8.48-7.75,10.97-13.08,2.48,5.34,6.28,9.89,10.98,13.1l-.72.37ZM219.44,111.72c-3.46,3.5-5.09,9.08-4.24,14.57.05.32.12.61.2.91l1.54,9.96-4.88-9.66c-2.52-4.98-7.09-8.58-11.95-9.41l-.98-.17c3.48-4.51,5.69-10,6.4-15.82,4,4.3,9.02,7.45,14.48,9.05l-.57.58ZM203.47,131.78c1.16,2.27,1.35,4.85.48,6.57l-3.39,6.72c-.43.86-1.07,1.37-1.94,1.51-.05,0-.16.02-.42.02-.2,0-.39-.02-.56-.04,0,0,0,0,0,0l-7.41-1.25c-1.69-.29-3.46-1.67-4.63-3.62l-.34-.65c-1.15-2.29-1.34-4.88-.48-6.59l3.39-6.72c.29-.59.69-1.01,1.16-1.25.5-.25,1.09-.31,1.74-.21l7.41,1.26c1.9.32,3.85,1.99,5,4.26ZM191.12,388.49c-.08,0-.16.02-.25.03-.48.09-1.17.02-1.62-.21,0,0,0,0,0,0-.48-.25-.88-.68-1.17-1.26l-3.33-6.76c-.85-1.7-.66-4.26.5-6.52,1.18-2.28,3.16-3.96,5.04-4.26l7.45-1.21c.2-.03.39-.05.57-.05,1.03,0,1.82.52,2.33,1.55l3.35,6.73c.75,1.52.68,3.76-.2,5.87l-.34.66c-1.17,2.27-3.15,3.94-5.05,4.26l-7.26,1.17ZM199.95,396.77c4.85-.8,9.45-4.36,11.99-9.28.02-.04.04-.08.06-.11.11-.25.23-.5.33-.75l4.59-8.92-1.72,10.66c-.89,5.51.7,11.11,4.13,14.62l.69.71c-5.46,1.6-10.47,4.75-14.48,9.04-.71-5.83-2.92-11.33-6.39-15.84l.8-.13ZM245.75,407.27c4.37-2.26,7.64-7.06,8.54-12.51.04-.23.06-.46.08-.69l1.63-10.17,1.66,10.67c.86,5.52,4.1,10.36,8.46,12.63l.87.46c-4.69,3.21-8.49,7.75-10.97,13.07-2.47-5.32-6.28-9.87-10.98-13.08l.72-.37ZM292.55,403.09c3.46-3.48,5.1-9.05,4.25-14.58-.04-.24-.1-.47-.15-.7l-1.58-10.12,4.87,9.65c2.53,4.99,7.11,8.59,11.94,9.4l.98.17c-3.47,4.5-5.68,10-6.39,15.83-4-4.31-9.03-7.46-14.5-9.07l.57-.58ZM308.53,383.06c-1.15-2.29-1.33-4.88-.48-6.6l3.38-6.7c.52-1.02,1.33-1.55,2.37-1.55.18,0,.38.02.57.05l7.41,1.26c1.68.29,3.45,1.67,4.63,3.61l.33.66c1.16,2.3,1.35,4.89.49,6.59l-3.42,6.75c-.27.56-.66.97-1.22,1.25-.09.05-.3.14-.67.2-.33.06-.75.02-.87,0-.04,0-.07-.01-.11-.02l-7.4-1.25c-1.9-.33-3.87-2-5.02-4.26ZM437.93,250.46c-.05,0-.11.02-.16.03-1.27.19-2.58.29-3.9.29-11.5,0-21.05-7.56-22.72-17.98-1.85-11.73,7.12-22.94,19.99-24.98,6.56-1.06,13,.39,18.16,4.07.04.03.07.06.11.09l.77.58h0s.03.02.05.04c3.39,2.71,4.68,7.04,5.64,13.13,1.01,6.36,1.09,10.78-1.44,14.52l-.1.14c-.12.17-.26.35-.39.56-3.8,5.12-9.48,8.5-16.01,9.53ZM100.86,232.87c-1.44,8.99-8.98,16.06-18.78,17.61-2.44.4-5.35.41-7.97,0-6.61-1.04-12.31-4.45-16.06-9.58-.02-.02-.03-.04-.05-.07l-.54-.76s-.04-.06-.06-.08c-2.36-3.63-2.24-8.13-1.28-14.19,1-6.33,2.28-10.55,5.85-13.37.13-.09.27-.19.41-.3l.23-.17c5.19-3.72,11.67-5.2,18.24-4.14,12.88,2.04,21.85,13.29,19.99,25.06ZM57.55,274.6c.15-.19.31-.41.49-.67,3.8-5.15,9.51-8.56,16.06-9.59,12.87-2.01,24.87,5.92,26.75,17.68,1.84,11.68-7.05,22.85-19.85,24.97-.06,0-.12.01-.17.02-1.36.21-2.74.32-4.11.32-5.14,0-9.98-1.52-14-4.39-.05-.04-.1-.09-.16-.13l-.66-.49s-.05-.04-.07-.06c-3.43-2.69-4.72-7.03-5.69-13.17-1-6.32-1.09-10.73,1.42-14.51ZM411.16,281.95c1.86-11.72,13.86-19.62,26.73-17.6,6.61,1.04,12.31,4.45,16.06,9.58.02.02.04.05.05.07l.53.76h0s.04.05.06.08c2.36,3.61,2.26,7.95,1.28,14.2-1.01,6.37-2.3,10.6-5.97,13.44-.07.06-.15.12-.23.18-.11.08-.23.17-.35.27-3.02,2.15-6.44,3.55-10.12,4.14-1.35.2-2.68.3-3.95.3s-2.66-.1-4.15-.32c-12.86-2.07-21.81-13.32-19.95-25.07ZM426.88,194.61c-2.44,1.22-4.99,2.05-7.59,2.47-1.26.2-2.56.29-3.87.29-8.44,0-15.9-4.33-19.47-11.3-5.37-10.6-.31-24.04,11.28-29.96,5.9-3,12.43-3.63,18.43-1.78.09.04.18.08.28.11l.9.3c4.08,1.51,6.64,5.24,9.46,10.77,2.92,5.69,4.36,9.85,3.11,14.26-.05.13-.09.28-.13.42-.03.09-.05.19-.1.31-2.01,6.06-6.38,11.07-12.3,14.1ZM85.39,154.67l.75-.25c6.09-1.94,12.71-1.34,18.63,1.69,11.6,5.92,16.65,19.39,11.27,30.02-3,5.87-8.7,9.86-15.65,10.96-1.2.19-2.46.29-3.75.29-3.94,0-7.9-.96-11.46-2.78,0,0,0,0,0,0-5.88-2.99-10.23-7.9-12.26-13.83-.02-.12-.05-.23-.09-.35l-.27-.82s0-.02,0-.03c-1.2-4.21.31-8.47,3.12-13.99,2.94-5.75,5.48-9.38,9.72-10.92ZM85.16,320.22c11.6-5.9,25.47-2.07,30.9,8.53,5.37,10.59.3,24.03-11.3,29.96-2.46,1.26-5.04,2.1-7.67,2.52-3.76.6-7.39.31-10.86-.79-.06-.02-.12-.05-.18-.07l-.79-.26s-.06-.02-.09-.03c-4.09-1.52-6.66-5.25-9.47-10.77-2.91-5.7-4.35-9.87-3.11-14.26.08-.24.17-.52.25-.81,2.04-6.04,6.41-11.02,12.32-14.02ZM426.55,360.16s-.13.05-.17.07c-.09.04-.2.07-.31.11l-.21.07c-1.11.36-2.27.63-3.45.81-1.29.21-2.51.3-3.73.3-3.88,0-7.84-.97-11.44-2.81-11.6-5.93-16.65-19.4-11.26-30.02,5.41-10.57,19.26-14.37,30.88-8.47,5.92,3.01,10.27,7.96,12.26,13.92.02.08.04.16.07.25l.29.9h0c1.17,4.22-.34,8.47-3.15,13.97-2.93,5.74-5.47,9.36-9.78,10.91ZM358.83,87.03c.02.08.04.16.07.24l.1.29c1.93,6.1,1.33,12.72-1.69,18.63-5.94,11.61-19.41,16.65-30.02,11.25-10.58-5.4-14.38-19.25-8.47-30.87,2.98-5.87,7.89-10.21,13.83-12.24.13-.02.25-.05.38-.09l.86-.29c4.21-1.16,8.46.35,13.95,3.16,5.73,2.92,9.35,5.45,10.92,9.73.02.06.04.13.07.21ZM305.61,82.27c-2.05,12.87-13.3,21.82-25.07,19.99-11.71-1.87-19.61-13.86-17.6-26.74,1.05-6.62,4.44-12.32,9.49-16.01.05-.03.1-.07.14-.1l.76-.52s.06-.05.1-.07c0,0,0,0,0,0,3.6-2.35,8.11-2.23,14.19-1.27,6.36,1,10.59,2.28,13.38,5.87.15.21.32.45.51.68,3.69,5.21,5.14,11.66,4.09,18.18ZM267.79,50.73c-.06.04-.12.08-.18.12l-.81.59c-4.69,3.41-8.38,8.01-10.8,13.34-2.43-5.34-6.16-9.96-10.89-13.41-.02-.01-.03-.02-.05-.04l-.37-.27-.68-.53c-4.97-3.79-7.83-9.54-7.84-15.76-.02-13.46,13.87-14.94,19.84-14.95h.07c5.96,0,10.97,1.33,14.48,3.84,3.58,2.58,5.32,6.2,5.32,11.06.01,6.34-3.04,12.34-8.1,16.01ZM238.83,58.99c.1.07.2.14.3.22.08.06.17.12.34.25,5.15,3.79,8.55,9.5,9.58,16.06,2.02,12.87-5.91,24.87-17.68,26.75-11.91,1.89-22.97-7.36-24.99-19.98-1.05-6.58.4-13.02,4.07-18.15.04-.05.09-.1.13-.16l.49-.67s.04-.04.06-.07c2.71-3.44,7.05-4.74,13.17-5.71,6.35-.99,10.76-1.08,14.53,1.46ZM178.4,74.03l.71.21c6.07,2.03,11.08,6.41,14.08,12.32,5.89,11.63,2.06,25.5-8.54,30.92-2.83,1.43-5.87,2.15-9.03,2.15-8.54,0-16.75-5.28-20.92-13.44-3.01-5.9-3.64-12.46-1.77-18.46.04-.08.07-.17.1-.25l.3-.89s0,0,0,0c1.51-4.07,5.24-6.64,10.76-9.46,5.73-2.92,9.91-4.37,14.29-3.09ZM125.47,106.97h.8c6.4.04,12.51,2.65,17.21,7.35,9.2,9.24,9.84,23.61,1.43,32.03-3.81,3.8-9,5.89-14.64,5.89-6.33,0-12.65-2.68-17.35-7.36-4.7-4.7-7.32-10.76-7.37-17.05,0-.07.01-.14.01-.21v-.94c.2-4.38,2.95-7.96,7.33-12.33,4.55-4.56,8.08-7.23,12.58-7.38ZM105.56,387.14c.04-6.39,2.66-12.5,7.36-17.2,9.23-9.2,23.61-9.84,32.04-1.43,8.38,8.4,7.71,22.75-1.48,31.97-3.82,3.82-8.54,6.28-13.63,7.1-1.13.17-2.28.27-3.43.28-.07,0-.13,0-.2-.01h-.95c-4.38-.2-7.97-2.95-12.33-7.32,0,0,0,0,0,0-4.53-4.53-7.19-8.04-7.37-12.57,0-.13,0-.27,0-.44v-.38ZM153.17,427.74c-.05-.17-.11-.34-.18-.52-1.9-6.08-1.3-12.68,1.71-18.57,5.93-11.61,19.4-16.67,30.01-11.27,10.57,5.4,14.38,19.25,8.48,30.87-3,5.92-7.95,10.27-13.96,12.28-.06.01-.13.03-.19.05l-.91.29s0,0,0,0c-.4.12-.82.21-1.23.28-.55.09-1.11.13-1.73.13-2.87,0-6.06-1.03-11.01-3.55-5.74-2.93-9.37-5.47-10.91-9.75l-.08-.24ZM206.39,432.54c2.05-12.86,13.3-21.83,25.07-19.99,11.72,1.87,19.62,13.87,17.61,26.75-1.04,6.58-4.42,12.26-9.51,16.01-.05.03-.09.06-.14.09l-.75.54c-1.38.92-2.91,1.5-4.7,1.78-.85.14-1.78.21-2.87.21-1.79,0-3.86-.2-6.72-.64-6.35-1-10.58-2.28-13.43-5.96l-.13-.17c-.1-.14-.22-.29-.34-.44-3.68-5.21-5.13-11.66-4.09-18.18ZM338.88,441.1c-1.87.29-3.53.21-5.29-.3-.2-.06-.42-.13-.68-.22-6.07-2.02-11.08-6.39-14.1-12.32-5.9-11.61-2.07-25.48,8.54-30.9,10.59-5.38,24.04-.31,29.97,11.29,3.02,5.9,3.64,12.47,1.74,18.5-.03.06-.05.12-.07.18l-.31.92s-.02.08-.04.11c-1.55,4.01-5.26,6.55-10.73,9.34-3.9,2-6.6,3.02-9.02,3.39ZM387.93,407.71c-.47.08-.98.11-1.43.14-.11,0-.24,0-.39,0h-.37c-6.4-.05-12.51-2.67-17.21-7.37-9.19-9.23-9.83-23.61-1.43-32.04,8.42-8.38,22.77-7.71,31.99,1.49,4.7,4.69,7.31,10.74,7.37,17.05,0,.08-.01.16-.01.24v.93c-.19,4.35-2.94,7.94-7.31,12.32-4.01,4-7.28,6.6-11.19,7.23Z"/>
</svg>