<?xml version="1.0" encoding="UTF-8"?>
<svg id="Layer_1" data-name="Layer 1" xmlns="http://www.w3.org/2000/svg" viewBox="0 0 512 512">
  <defs>
    <style>
      .cls-1 {
        fill: none;
        stroke: #9f8151;
        stroke-linecap: round;
        stroke-miterlimit: 10;
        stroke-width: 11px;
      }
    </style>
  </defs>
  <rect class="cls-1" x="19.63" y="12.67" width="213.47" height="486.66" rx="29.06" ry="29.06"/>
  <path class="cls-1" d="M331.63,130.6h67.92c15.25,0,27.62,12.36,27.62,27.62h0c0,15.25-12.36,27.62-27.62,27.62H136.82c-15.25,0-27.62-12.36-27.62-27.62h0c0-15.25,12.36-27.62,27.62-27.62h144.06"/>
  <path class="cls-1" d="M197.5,187.44c-11.1,26.25-37.1,44.68-67.4,44.68-40.4,0-73.15-32.75-73.15-73.15s32.75-73.15,73.15-73.15c29.84,0,55.5,17.86,66.88,43.48"/>
  <path class="cls-1" d="M154.36,333.07c0-13.91-11.28-25.19-25.19-25.19s-25.19,11.28-25.19,25.19c0,9.57,5.33,17.89,13.19,22.15v29.79c0,6.87,5.57,12.44,12.44,12.44s12.44-5.57,12.44-12.44v-30.29c7.37-4.39,12.32-12.44,12.32-21.65Z"/>
  <rect class="cls-1" x="341.07" y="289.65" width="110.39" height="184.09" rx="11.53" ry="11.53" transform="translate(-151.86 333.95) rotate(-38.95)"/>
  <path class="cls-1" d="M329.64,233.11s-48.27,6.47-63.69,55.23"/>
  <path class="cls-1" d="M331.13,267.45s-27.37-4.98-32.84,26.87"/>
  <circle class="cls-1" cx="324.22" cy="290.62" r="2.07"/>
  <g>
    <rect class="cls-1" x="398.14" y="392.28" width="35.89" height="35.89" rx="15.88" ry="15.88" transform="translate(-165.38 352.75) rotate(-38.95)"/>
    <line class="cls-1" x1="358.5" y1="341.32" x2="400.66" y2="392.84"/>
    <line class="cls-1" x1="385.25" y1="335.22" x2="368.45" y2="348.66"/>
    <line class="cls-1" x1="393.08" y1="355.75" x2="382.25" y2="364.42"/>
  </g>
</svg>