<?xml version="1.0" encoding="UTF-8"?>
<svg id="Layer_1" data-name="Layer 1" xmlns="http://www.w3.org/2000/svg" viewBox="0 0 512 512">
  <defs>
    <style>
      .cls-1 {
        fill: none;
        stroke: #9f8151;
        stroke-linecap: round;
        stroke-miterlimit: 10;
        stroke-width: 11px;
      }
    </style>
  </defs>
  <path class="cls-1" d="M324.22,206.88s-7.96-7.34-20.22-3.65c-11.26,3.39-14.06,18.8-6.41,24.81,4.39,3.45,11.01,6.28,19.92,9.43,19.95,7.05,12.57,35.18-7.72,35.32-7.92.05-11.62-.45-18.58-5M309.79,283.05v-10.27M309.79,202.22v-9.52M384.16,150.66l-33.29-11.53,33.29-11.53M244.85,429.72l-13.7,48.08c-2.76,9.69-11.62,16.37-21.69,16.37H79.23M413.34,286.49l33.32-31.53c4.79-4.61,11.18-7.19,17.83-7.18,4.44,0,8.8,1.15,12.66,3.34,13.47,7.64,17.18,25.36,7.9,37.76l-61.04,81.53c-9.97,13.33-24.31,22.72-40.51,26.55l-104.57,24.7M217.73,349.35l18.45-26.89,40.02-56.62c2.81-3.97,4.2-8.61,4.2-13.24s-1.53-9.69-4.58-13.77c-7.35-9.8-21.1-12.11-31.24-5.24l-70.5,47.76c-9.48,6.42-17.22,15.08-22.54,25.21l-9.81,19.29"/>
  <path class="cls-1" d="M415.07,245.11c10.22-6.69,23.82-6.14,33.53,1.81l4.37,3.58M310.23,17.84v30.44M325.46,33.06h-30.44M97.44,336.3s-6.12-5.65-15.56-2.8c-8.67,2.61-10.82,14.47-4.93,19.09,3.38,2.65,8.47,4.83,15.33,7.26,15.35,5.43,9.68,27.07-5.94,27.18-6.09.04-8.94-.35-14.29-3.85M86.34,394.92v-7.9M86.34,332.72v-7.33"/>
  <circle class="cls-1" cx="86.68" cy="360.16" r="64.86"/>
  <path class="cls-1" d="M134.26,459.59H39.1c-9.55,0-17.28-7.74-17.28-17.29h0c0-9.55,7.74-17.29,17.28-17.29h95.16c9.55,0,17.29,7.74,17.29,17.29h0c0,9.55-7.74,17.29-17.29,17.29ZM134.26,494.16H39.1c-9.55,0-17.28-7.74-17.28-17.29h0c0-9.55,7.74-17.29,17.28-17.29h95.16c9.55,0,17.29,7.74,17.29,17.29h0c0,9.55-7.74,17.29-17.29,17.29ZM481.51,73.17l-26.24-26.24-26.24,26.24M455.27,46.92v135.21M238.23,322.39c9.07,4.55,19.07,6.92,29.22,6.92h84.69c27.37,0,51.82-17.11,61.2-42.82h0c3.82-10.44,4.89-21.68,3.12-32.65-3.86-23.85-27.11-67.18-65.59-114.7l12.71-42.68c2.44-8.23-3.72-16.5-12.3-16.5h-82.96c-8.59,0-14.76,8.27-12.3,16.5l12.7,42.68c-38.48,47.52-61.73,90.85-65.59,114.7-.44,2.73-.71,5.49-.8,8.26M268.71,139.14h82.15"/>
</svg>