<?xml version="1.0" encoding="UTF-8"?>
<svg id="Layer_1" data-name="Layer 1" xmlns="http://www.w3.org/2000/svg" viewBox="0 0 512 512">
  <defs>
    <style>
      .cls-1 {
        fill: none;
        stroke: #9f8151;
        stroke-linecap: round;
        stroke-miterlimit: 10;
        stroke-width: 11px;
      }
    </style>
  </defs>
  <path class="cls-1" d="M392.21,156.98V45.3c0-8.54-6.92-15.47-15.47-15.47H30.73c-8.54,0-15.47,6.92-15.47,15.47v421.4c0,8.54,6.92,15.47,15.47,15.47h346.01c8.54,0,15.47-6.92,15.47-15.47h0v-33.43"/>
  <g>
    <path class="cls-1" d="M65.7,151.94l17.16,15.93c2.25,2.09,5.75,2.03,7.93-.14l29.68-29.57"/>
    <path class="cls-1" d="M65.7,253.21l17.16,15.93c2.25,2.09,5.75,2.03,7.93-.14l29.68-29.57"/>
    <line class="cls-1" x1="147.77" y1="165.11" x2="308.02" y2="165.11"/>
    <line class="cls-1" x1="147.77" y1="263" x2="252.29" y2="263"/>
    <path class="cls-1" d="M65.7,356.73l17.16,15.93c2.25,2.09,5.75,2.03,7.93-.14l29.68-29.57"/>
    <line class="cls-1" x1="147.77" y1="369.89" x2="227.54" y2="369.89"/>
  </g>
  <path class="cls-1" d="M459.29,373.73c-18.43,15.61-42.28,25.03-68.33,25.03-58.41,0-105.77-47.35-105.77-105.77s47.35-105.77,105.77-105.77,105.77,47.35,105.77,105.77c0,15.64-3.4,30.49-9.49,43.85"/>
  <path class="cls-1" d="M413.22,248.23s-11.32-10.44-28.77-5.18c-16.02,4.83-20,26.74-9.11,35.28,6.25,4.9,15.66,8.93,28.33,13.41,28.37,10.03,17.88,50.04-10.98,50.23-11.26.08-16.53-.64-26.42-7.11"/>
  <line class="cls-1" x1="392.7" y1="356.58" x2="392.7" y2="341.98"/>
  <line class="cls-1" x1="392.7" y1="241.61" x2="392.7" y2="228.06"/>
</svg>