<?xml version="1.0" encoding="UTF-8"?>
<svg id="Layer_1" data-name="Layer 1" xmlns="http://www.w3.org/2000/svg" viewBox="0 0 512 512">
  <defs>
    <style>
      .cls-1 {
        fill: none;
        stroke: #9f8151;
        stroke-linecap: round;
        stroke-miterlimit: 10;
        stroke-width: 11px;
      }
    </style>
  </defs>
  <g>
    <g>
      <path class="cls-1" d="M303.43,266.68c-.71,29.77,15.51,54.16,21.58,81.19,10.13,45.17,3.25,56.75-1.94,81.75M354.51,427.13l11.01-56.81-13.44-77.97c11.1-8.18,17.56-16.62,21.51-25.44s5.42-18.02,6.51-27.74c2.79-24.68,3.24-52.68,36.37-86.19M159.96,163.49c-9.6-2.07-17.85-4-23.92-5.03-35.19-5.96-59.72,14.39-73.21,38.55M56.32,211.08c-4.41,11.8-6.31,23.49-5.65,32.66,2.64,36.7,16.5,62.85,19.33,99.95,2.43,31.75-5.94,41.7-5.94,91.66M94.05,435.36l-1.71-21.87,10.16-58.08c4.87-27.86,49.25-52.27,57.12-108.84M305.31,301.95c-55.36,9.56-89.65-16.69-155.87-21.3"/>
      <path class="cls-1" d="M89.53,167.54c-28.85-30.32-76.33-9.5-75.89,27.9.3,25.34,27.29,63.31,0,106.05,18.59,5.07,32.44,2.85,46.94-6.74M126.7,315.94c1.88,8.66,4.04,17.96,4.79,27.75,2.43,31.75-4.73,30.64-4.73,80.6M149.74,420.52l14.25-65.12c3.39-19.38,26.53-37.21,42.56-65.23M273.8,304.14c2.35,14.99,5.93,28.38,9.35,43.64,3.65,29.93,12.86,41.79.35,66.42"/>
      <path class="cls-1" d="M402.46,141.19c12.18,17.12,25.27,14.14,42.96,12.39l18.64,14.9,9.54,8.24,24.77-29.72-10.62-12.06-24.92-28.36-19.61-22.97-7.5-38.56h0c-13.41,7.19-23.02,19.87-26.33,34.72l-2.08,9.35h0c-26.94,6.72-68.64,29.68-96.91,53.51-5.77,4.87-12.03,9.12-18.67,12.72h0c-11.68,6.33-24.38,10.52-37.53,12.37-21.5,3.02-55.87,4.95-93.89-4.13"/>
    </g>
    <path class="cls-1" d="M292.54,157.67v57.4c0,13.28-10.77,24.05-24.05,24.05h-65.16c-13.28,0-24.05-10.77-24.05-24.05v-46.44"/>
  </g>
  <path class="cls-1" d="M323.07,429.61l-9.51,32.07h47.56l-7.05-32.35-31,.28"/>
  <path class="cls-1" d="M63.87,434.9l-9.25,32.07h46.24l-6.85-32.35-30.14.28"/>
  <path class="cls-1" d="M126.1,426.17l-7.4,25.65h36.99l-5.48-25.88-24.11.23"/>
  <path class="cls-1" d="M309.93,412.05h-19.66c-4.81,0-8.94,3.39-9.88,8.11l-4.32,16.76h27.92"/>
  <path class="cls-1" d="M431.89,161.93c10.43,22.26,11.64,42.11,1.15,52.25-17.42,16.86-109.91-22.49-131.71-85.9"/>
  <path class="cls-1" d="M429.15,110.82v8.02"/>
</svg>