<?xml version="1.0" encoding="UTF-8"?>
<svg id="Layer_1" data-name="Layer 1" xmlns="http://www.w3.org/2000/svg" viewBox="0 0 512 512">
  <defs>
    <style>
      .cls-1 {
        fill: none;
        stroke: #9f8151;
        stroke-linecap: round;
        stroke-miterlimit: 10;
        stroke-width: 11px;
      }
    </style>
  </defs>
  <path class="cls-1" d="M113.67,336.93l21.95-217.46c1.26-12.45,11.77-21.93,24.32-21.93h231.77c12.55,0,23.06,9.48,24.32,21.93l13.66,153.47M435.26,309.98l12.51,123.92c1.45,14.35-9.85,26.81-24.32,26.81h-101.61"/>
  <path class="cls-1" d="M218.39,148.64v-83.58c0-31.63,25.71-57.27,57.43-57.27h0c31.72,0,57.43,25.64,57.43,57.27v83.58M143.6,504.21h156.74c13.86,0,24.7-11.95,23.31-25.72l-12.17-120.53c-1.21-11.94-11.28-21.03-23.31-21.03H99.7c-12.03,0-22.1,9.09-23.31,21.03l-12.17,120.53c-1.39,13.77,9.44,25.72,23.31,25.72h26.07"/>
  <path class="cls-1" d="M150.06,375.97v-60.53c0-24.16,19.65-43.75,43.88-43.75h0c24.23,0,43.88,19.59,43.88,43.75v60.53"/>
</svg>