<?xml version="1.0" encoding="UTF-8"?>
<svg id="Layer_1" data-name="Layer 1" xmlns="http://www.w3.org/2000/svg" viewBox="0 0 512 512">
  <defs>
    <style>
      .cls-1 {
        stroke-linejoin: round;
      }

      .cls-1, .cls-2 {
        fill: none;
        stroke: #9f8151;
        stroke-linecap: round;
        stroke-width: 11px;
      }

      .cls-2 {
        stroke-miterlimit: 10;
      }
    </style>
  </defs>
  <path class="cls-1" d="M318.91,171.81c11.63,0,20.09,9.52,20.09,20.09,0-11.63,9.52-20.09,20.09-20.09M194.14,233.14c11.63,0,20.09,9.52,20.09,20.09,0-11.63,9.52-20.09,20.09-20.09M407.73,129.52c11.63,0,20.09,9.52,20.09,20.09,0-11.63,9.52-20.09,20.09-20.09"/>
  <circle class="cls-2" cx="189.64" cy="102.85" r="44.83"/>
  <path class="cls-2" d="M178.28,356.85h154.37M178.28,388.57h154.37M159.25,421.35h192.44M195.2,356.85v64.5M315.74,356.85v64.5M171.94,421.35v32.63M203.66,421.35v32.63M307.28,421.35v32.63M339,421.35v32.63M203.66,356.85v-12.69M307.28,356.85v-12.69M387.64,354.74v98.19M428.88,313.5c0,22.2-17.98,41.24-41.24,41.24s-41.24-17.98-41.24-41.24,17.98-80.36,41.24-80.36,41.24,58.15,41.24,80.36ZM473.29,400.2v53.78M501.84,372.71c0,14.8-12.69,27.49-27.49,27.49s-27.49-12.69-27.49-27.49,12.69-53.93,27.49-53.93,27.49,39.12,27.49,53.93ZM123.3,354.74v98.19M82.06,313.5c0,22.2,17.98,41.24,41.24,41.24s41.24-17.98,41.24-41.24-17.98-80.36-41.24-80.36-41.24,58.15-41.24,80.36ZM37.66,400.2v53.78M10.16,372.71c0,14.8,12.69,27.49,27.49,27.49s27.49-12.69,27.49-27.49-12.69-53.93-27.49-53.93c-15.86,0-27.49,39.12-27.49,53.93ZM10.16,453.98h491.67"/>
</svg>