<?xml version="1.0" encoding="UTF-8"?>
<svg id="Layer_1" data-name="Layer 1" xmlns="http://www.w3.org/2000/svg" viewBox="0 0 512 512">
  <defs>
    <style>
      .cls-1 {
        stroke-linejoin: round;
      }

      .cls-1, .cls-2 {
        fill: none;
        stroke: #9f8151;
        stroke-linecap: round;
        stroke-width: 11px;
      }

      .cls-2 {
        stroke-miterlimit: 10;
      }
    </style>
  </defs>
  <polyline class="cls-1" points="400.43 216.26 400.43 10.16 38.23 138.42 38.23 501.84"/>
  <polyline class="cls-1" points="225.73 501.84 225.73 221.45 468.18 221.45 468.18 499.63"/>
  <polyline class="cls-1" points="397.67 501.84 397.67 411.31 345.89 411.31 296.23 411.31 296.23 501.84"/>
  <line class="cls-1" x1="346.95" y1="501.84" x2="346.95" y2="411.31"/>
  <line class="cls-2" x1="225.73" y1="311.96" x2="468.18" y2="311.96"/>
  <line class="cls-2" x1="9.59" y1="501.84" x2="502.41" y2="501.84"/>
  <polyline class="cls-1" points="85.96 501.84 85.96 364.91 182.52 364.91 182.52 500.18"/>
  <line class="cls-2" x1="182.52" y1="398.46" x2="88.79" y2="398.46"/>
  <line class="cls-2" x1="182.52" y1="468.08" x2="88.79" y2="468.08"/>
  <line class="cls-2" x1="182.52" y1="433.27" x2="88.79" y2="433.27"/>
  <rect class="cls-2" x="95.18" y="186.99" width="78.12" height="78.12" rx="3.78" ry="3.78"/>
</svg>